<?xml version="1.0" encoding="utf-8"?>
<svg version="1.1" xmlns:xlink="http://www.w3.org/1999/xlink" width="25px" height="24px" xmlns="http://www.w3.org/2000/svg">
  <g transform="matrix(1 0 0 1 -405 -1110 )">
    <path d="M 1.38346354166667 0  L 23.6165364583333 0  C 23.9963107638889 0  24.3218315972222 0.130208333333333  24.5930989583333 0.390624999999999  C 24.8643663194444 0.651041666666665  25 0.963541666666663  25 1.328125  L 25 22.671875  C 25 23.0364583333333  24.8643663194444 23.3489583333333  24.5930989583333 23.609375  C 24.3218315972222 23.8697916666667  23.9963107638889 24  23.6165364583333 24  L 17.2526041666667 24  L 17.2526041666667 14.703125  L 20.4915364583333 14.703125  L 20.9798177083333 11.078125  L 17.2526041666667 11.078125  L 17.2526041666667 8.765625  C 17.2526041666667 8.18229166666666  17.3800998263889 7.74479166666666  17.6350911458333 7.453125  C 17.8900824652778 7.16145833333333  18.3865017361111 7.015625  19.1243489583333 7.015625  L 21.1100260416667 7  L 21.1100260416667 3.765625  C 20.4264322916667 3.671875  19.4607204861111 3.625  18.212890625 3.625  C 16.7371961805556 3.625  15.5571831597222 4.04166666666666  14.6728515625 4.875  C 13.7885199652778 5.70833333333333  13.3463541666667 6.88541666666667  13.3463541666667 8.40625  L 13.3463541666667 11.078125  L 10.0911458333333 11.078125  L 10.0911458333333 14.703125  L 13.3463541666667 14.703125  L 13.3463541666667 24  L 1.38346354166667 24  C 1.00368923611111 24  0.678168402777778 23.8697916666667  0.406901041666667 23.609375  C 0.135633680555556 23.3489583333333  0 23.0364583333333  0 22.671875  L 0 1.328125  C 0 0.963541666666663  0.135633680555556 0.651041666666665  0.406901041666667 0.390624999999999  C 0.678168402777778 0.130208333333333  1.00368923611111 0  1.38346354166667 0  Z " fill-rule="nonzero" fill="#000000" stroke="none" transform="matrix(1 0 0 1 405 1110 )" />
  </g>
</svg>