<?xml version="1.0" encoding="utf-8"?>
<svg version="1.1" xmlns:xlink="http://www.w3.org/1999/xlink" width="25px" height="25px" xmlns="http://www.w3.org/2000/svg">
  <g transform="matrix(1 0 0 1 -405 -1139 )">
    <path d="M 15.2665317139001 16.4202008928571  C 15.7051282051282 16.4202008928571  15.9244264507422 16.7317708333333  15.9244264507422 17.3549107142857  L 15.9244264507422 20.2985491071429  C 15.9244264507422 20.9216889880952  15.7051282051282 21.2332589285714  15.2665317139001 21.2332589285714  C 15.0078722447144 21.2332589285714  14.7548358074674 21.1309523809524  14.5074224021592 20.9263392857143  L 14.5074224021592 16.7271205357143  C 14.7548358074674 16.5225074404762  15.0078722447144 16.4202008928571  15.2665317139001 16.4202008928571  Z M 20.8670715249663 16.4202008928571  C 21.3731443994602 16.4202008928571  21.6261808367072 16.7364211309524  21.6261808367072 17.3688616071429  L 21.6261808367072 18.0106026785714  L 20.1079622132254 18.0106026785714  L 20.1079622132254 17.3688616071429  C 20.1079622132254 16.7364211309524  20.3609986504723 16.4202008928571  20.8670715249663 16.4202008928571  Z M 5.3306342780027 22.265625  L 5.3306342780027 14.3275669642857  L 7.13562753036437 14.3275669642857  L 7.13562753036437 13.0161830357143  L 1.87246963562753 13.0161830357143  L 1.87246963562753 14.3275669642857  L 3.64372469635628 14.3275669642857  L 3.64372469635628 22.265625  L 5.3306342780027 22.265625  Z M 10.1889338731444 21.5122767857143  L 10.1889338731444 22.265625  L 11.6902834008097 22.265625  L 11.6902834008097 15.3738839285714  L 10.1889338731444 15.3738839285714  L 10.1889338731444 20.6473214285714  C 9.85155195681511 21.0379464285714  9.53103913630229 21.2332589285714  9.22739541160594 21.2332589285714  C 9.02496626180837 21.2332589285714  8.90688259109312 21.1356026785714  8.87314439946019 20.9402901785714  C 8.86189833558255 20.9123883928571  8.85627530364373 20.7496279761905  8.85627530364373 20.4520089285714  L 8.85627530364373 15.3738839285714  L 7.35492577597841 15.3738839285714  L 7.35492577597841 20.8286830357143  C 7.35492577597841 21.284412202381  7.39991003148898 21.6238839285714  7.48987854251012 21.8470982142857  C 7.62483130904184 22.1912202380952  7.95096716149348 22.36328125  8.46828609986505 22.36328125  C 9.0080971659919 22.36328125  9.58164642375169 22.0796130952381  10.1889338731444 21.5122767857143  Z M 17.2739541160594 21.5959821428571  C 17.3751686909582 21.3448660714286  17.4257759784076 20.8798363095238  17.4257759784076 20.2008928571429  L 17.4257759784076 17.4525669642857  C 17.4257759784076 16.7736235119048  17.3751686909582 16.313244047619  17.2739541160594 16.0714285714286  C 17.0827710301395 15.5505952380952  16.6835357624831 15.2901785714286  16.0762483130904 15.2901785714286  C 15.5139451192083 15.2901785714286  14.9910031488979 15.5412946428571  14.5074224021592 16.0435267857143  L 14.5074224021592 13.0161830357143  L 13.0060728744939 13.0161830357143  L 13.0060728744939 22.265625  L 14.5074224021592 22.265625  L 14.5074224021592 21.5959821428571  C 15.0134952766532 22.1075148809524  15.5364372469636 22.36328125  16.0762483130904 22.36328125  C 16.6835357624831 22.36328125  17.0827710301395 22.1075148809524  17.2739541160594 21.5959821428571  Z M 23.0937921727395 20.8705357142857  C 23.1162843004948 20.7868303571429  23.1275303643725 20.5171130952381  23.1275303643725 20.0613839285714  L 23.1275303643725 19.8800223214286  L 21.5924426450742 19.8800223214286  C 21.5924426450742 20.3543526785714  21.5811965811966 20.6380208333333  21.5587044534413 20.7310267857143  C 21.4799820062978 21.0658482142857  21.2550607287449 21.2332589285714  20.8839406207827 21.2332589285714  C 20.3666216824112 21.2332589285714  20.1079622132254 20.9123883928571  20.1079622132254 20.2706473214286  L 20.1079622132254 19.0569196428571  L 23.1275303643725 19.0569196428571  L 23.1275303643725 17.6199776785714  C 23.1275303643725 16.8852306547619  22.9757085020243 16.3457961309524  22.6720647773279 16.0016741071429  C 22.2334682860999 15.52734375  21.6374269005848 15.2901785714286  20.8839406207827 15.2901785714286  C 20.119208277103 15.2901785714286  19.5175438596491 15.52734375  19.0789473684211 16.0016741071429  C 18.7640575798471 16.3457961309524  18.6066126855601 16.8852306547619  18.6066126855601 17.6199776785714  L 18.6066126855601 20.0334821428571  C 18.6066126855601 20.7682291666667  18.7696806117859 21.3076636904762  19.0958164642375 21.6517857142857  C 19.5344129554656 22.1261160714286  20.1417004048583 22.36328125  20.9176788124157 22.36328125  C 21.7273954116059 22.36328125  22.3346828609987 22.1168154761905  22.7395411605938 21.6238839285714  C 22.9419703103914 21.3727678571429  23.0600539811066 21.1216517857143  23.0937921727395 20.8705357142857  Z M 12.1457489878543 8.30078125  C 12.6293297345929 8.30078125  12.8711201079622 7.97526041666667  12.8711201079622 7.32421875  L 12.8711201079622 4.39453125  C 12.8711201079622 3.75279017857143  12.6293297345929 3.43191964285714  12.1457489878543 3.43191964285714  C 11.6621682411156 3.43191964285714  11.4203778677463 3.75279017857143  11.4203778677463 4.39453125  L 11.4203778677463 7.32421875  C 11.4203778677463 7.97526041666667  11.6621682411156 8.30078125  12.1457489878543 8.30078125  Z M 24.5614035087719 12.9185267857143  C 24.8538011695906 13.960193452381  25 15.5877976190476  25 17.8013392857143  C 25 19.9776785714286  24.8538011695906 21.6052827380952  24.5614035087719 22.6841517857143  C 24.4039586144849 23.2328869047619  24.0778227620333 23.6932663690476  23.582995951417 24.0652901785714  C 23.0881691408007 24.4373139880952  22.5146198830409 24.6512276785714  21.8623481781377 24.70703125  C 19.7930724246514 24.90234375  16.6722896986055 25  12.5 25  C 8.32771030139451 25  5.20692757534863 24.90234375  3.13765182186235 24.70703125  C 2.48538011695906 24.6512276785714  1.90901934322987 24.4373139880952  1.40856950067476 24.0652901785714  C 0.908119658119658 23.6932663690476  0.584795321637427 23.2328869047619  0.43859649122807 22.6841517857143  C 0.146198830409357 21.6424851190476  0 20.014880952381  0 17.8013392857143  C 0 15.625  0.146198830409357 13.9973958333333  0.43859649122807 12.9185267857143  C 0.59604138551507 12.3697916666667  0.922177237966712 11.909412202381  1.417004048583 11.5373883928571  C 1.91183085919928 11.1653645833333  2.49100314889789 10.9468005952381  3.15452091767881 10.8816964285714  C 5.21255060728745 10.6956845238095  8.32771030139451 10.6026785714286  12.5 10.6026785714286  C 16.6722896986055 10.6026785714286  19.7930724246514 10.6956845238095  21.8623481781377 10.8816964285714  C 22.5146198830409 10.9468005952381  23.0909806567701 11.1653645833333  23.5914304993252 11.5373883928571  C 24.0918803418803 11.909412202381  24.4152046783626 12.3697916666667  24.5614035087719 12.9185267857143  Z M 7.01754385964912 3.66908482142857  L 8.16464237516869 0  L 9.88529014844804 0  L 7.84412955465587 5.56640625  L 7.84412955465587 9.34709821428572  L 6.15721997300945 9.34709821428572  L 6.15721997300945 5.56640625  C 5.99977507872245 4.87816220238095  5.65677013045434 3.89229910714286  5.12820512820513 2.60881696428572  C 4.71210076473234 1.6508556547619  4.34660368870895 0.78125  4.03171390013495 0  L 5.81983805668016 0  L 7.01754385964912 3.66908482142857  Z M 13.9338731443995 3.01339285714286  C 14.2487629329735 3.35751488095238  14.4062078272605 3.90159970238095  14.4062078272605 4.64564732142857  L 14.4062078272605 7.08705357142857  C 14.4062078272605 7.84040178571428  14.2487629329735 8.3891369047619  13.9338731443995 8.73325892857143  C 13.506522717049 9.20758928571428  12.910481331534 9.44475446428572  12.1457489878543 9.44475446428572  C 11.3922627080522 9.44475446428572  10.8018443544759 9.20758928571428  10.3744939271255 8.73325892857143  C 10.0596041385515 8.37983630952381  9.90215924426451 7.83110119047619  9.90215924426451 7.08705357142857  L 9.90215924426451 4.64564732142857  C 9.90215924426451 3.90159970238095  10.0596041385515 3.35751488095238  10.3744939271255 3.01339285714286  C 10.8018443544759 2.5390625  11.3922627080522 2.30189732142857  12.1457489878543 2.30189732142857  C 12.910481331534 2.30189732142857  13.506522717049 2.5390625  13.9338731443995 3.01339285714286  Z M 18.5222672064777 2.38560267857143  L 20.057354925776 2.38560267857143  L 20.057354925776 9.34709821428572  L 18.5222672064777 9.34709821428572  L 18.5222672064777 8.57979910714286  C 17.9262258209627 9.15643601190476  17.3470535312641 9.44475446428572  16.7847503373819 9.44475446428572  C 16.2674313990103 9.44475446428572  15.9356725146199 9.27269345238095  15.7894736842105 8.92857142857143  C 15.6995051731894 8.70535714285714  15.6545209176788 8.35658482142857  15.6545209176788 7.88225446428572  L 15.6545209176788 2.38560267857143  L 17.1896086369771 2.38560267857143  L 17.1896086369771 7.50558035714286  C 17.1896086369771 7.8125  17.1952316689159 7.97526041666667  17.2064777327935 7.99386160714286  C 17.2402159244265 8.19847470238095  17.3582995951417 8.30078125  17.5607287449393 8.30078125  C 17.8643724696356 8.30078125  18.1848852901484 8.10081845238095  18.5222672064777 7.70089285714286  L 18.5222672064777 2.38560267857143  Z " fill-rule="nonzero" fill="#000000" stroke="none" transform="matrix(1 0 0 1 405 1139 )" />
  </g>
</svg>