<?xml version="1.0" encoding="utf-8"?>
<svg version="1.1" xmlns:xlink="http://www.w3.org/1999/xlink" width="33px" height="32px" xmlns="http://www.w3.org/2000/svg">
  <defs>
    <filter x="1px" y="1105px" width="33px" height="32px" filterUnits="userSpaceOnUse" id="filter1">
      <feOffset dx="1" dy="1" in="SourceAlpha" result="shadowOffsetInner" />
      <feGaussianBlur stdDeviation="2.5" in="shadowOffsetInner" result="shadowGaussian" />
      <feComposite in2="shadowGaussian" operator="atop" in="SourceAlpha" result="shadowComposite" />
      <feColorMatrix type="matrix" values="0 0 0 0 0  0 0 0 0 0  0 0 0 0 0  0 0 0 0.698039215686274 0  " in="shadowComposite" />
    </filter>
    <g id="widget2">
      <path d="M 16.5 1109  C 22.94 1109  28 1113.84  28 1120  C 28 1126.16  22.94 1131  16.5 1131  C 10.06 1131  5 1126.16  5 1120  C 5 1113.84  10.06 1109  16.5 1109  Z " fill-rule="nonzero" fill="#009dd9" stroke="none" />
      <path d="M 16.5 1109.5  C 22.66 1109.5  27.5 1114.12  27.5 1120  C 27.5 1125.88  22.66 1130.5  16.5 1130.5  C 10.34 1130.5  5.5 1125.88  5.5 1120  C 5.5 1114.12  10.34 1109.5  16.5 1109.5  Z " stroke-width="1" stroke="#ffffff" fill="none" />
    </g>
  </defs>
  <g transform="matrix(1 0 0 1 -1 -1105 )">
    <use xlink:href="#widget2" filter="url(#filter1)" />
    <use xlink:href="#widget2" />
  </g>
</svg>