<?xml version="1.0" encoding="utf-8"?>
<svg version="1.1" xmlns:xlink="http://www.w3.org/1999/xlink" width="24px" height="22px" xmlns="http://www.w3.org/2000/svg">
  <g transform="matrix(1 0 0 1 -36 -1167 )">
    <path d="M 1.09090909090909 0  L 22.9090909090909 0  C 23.2045454545455 0  23.4602272727273 0.0777529761904781  23.6761363636364 0.233258928571429  C 23.8920454545455 0.388764880952378  24 0.572916666666666  24 0.785714285714285  L 24 21.2142857142857  C 24 21.4270833333333  23.8920454545455 21.6112351190476  23.6761363636364 21.7667410714286  C 23.4602272727273 21.9222470238095  23.2045454545455 22  22.9090909090909 22  L 1.09090909090909 22  C 0.795454545454546 22  0.539772727272727 21.9222470238095  0.323863636363636 21.7667410714286  C 0.107954545454545 21.6112351190476  0 21.4270833333333  0 21.2142857142857  L 0 0.785714285714285  C 0 0.572916666666666  0.107954545454545 0.388764880952378  0.323863636363636 0.233258928571429  C 0.539772727272727 0.0777529761904781  0.795454545454546 0  1.09090909090909 0  Z M 8.88068181818182 3.25334821428571  C 8.77840909090909 3.32700892857143  8.72727272727273 3.42113095238095  8.72727272727273 3.53571428571429  L 8.72727272727273 4.32142857142857  C 8.72727272727273 4.43601190476191  8.77840909090909 4.53013392857143  8.88068181818182 4.60379464285714  C 8.98295454545455 4.67745535714286  9.11363636363637 4.71428571428571  9.27272727272727 4.71428571428571  L 10.3636363636364 4.71428571428571  C 10.5227272727273 4.71428571428571  10.6534090909091 4.67745535714286  10.7556818181818 4.60379464285714  C 10.8579545454545 4.53013392857143  10.9090909090909 4.43601190476191  10.9090909090909 4.32142857142857  L 10.9090909090909 3.53571428571429  C 10.9090909090909 3.42113095238095  10.8579545454545 3.32700892857143  10.7556818181818 3.25334821428571  C 10.6534090909091 3.1796875  10.5227272727273 3.14285714285714  10.3636363636364 3.14285714285714  L 9.27272727272727 3.14285714285714  C 9.11363636363637 3.14285714285714  8.98295454545455 3.1796875  8.88068181818182 3.25334821428571  Z M 8.88068181818182 6.39620535714286  C 8.77840909090909 6.46986607142857  8.72727272727273 6.56398809523809  8.72727272727273 6.67857142857143  L 8.72727272727273 7.46428571428571  C 8.72727272727273 7.57886904761905  8.77840909090909 7.67299107142857  8.88068181818182 7.74665178571429  C 8.98295454545455 7.8203125  9.11363636363637 7.85714285714286  9.27272727272727 7.85714285714286  L 10.3636363636364 7.85714285714286  C 10.5227272727273 7.85714285714286  10.6534090909091 7.8203125  10.7556818181818 7.74665178571429  C 10.8579545454545 7.67299107142857  10.9090909090909 7.57886904761905  10.9090909090909 7.46428571428571  L 10.9090909090909 6.67857142857143  C 10.9090909090909 6.56398809523809  10.8579545454545 6.46986607142857  10.7556818181818 6.39620535714286  C 10.6534090909091 6.32254464285714  10.5227272727273 6.28571428571429  10.3636363636364 6.28571428571429  L 9.27272727272727 6.28571428571429  C 9.11363636363637 6.28571428571429  8.98295454545455 6.32254464285714  8.88068181818182 6.39620535714286  Z M 8.88068181818182 9.5390625  C 8.77840909090909 9.61272321428572  8.72727272727273 9.70684523809524  8.72727272727273 9.82142857142857  L 8.72727272727273 10.6071428571429  C 8.72727272727273 10.7217261904762  8.77840909090909 10.8158482142857  8.88068181818182 10.8895089285714  C 8.98295454545455 10.9631696428571  9.11363636363637 11  9.27272727272727 11  L 10.3636363636364 11  C 10.5227272727273 11  10.6534090909091 10.9631696428571  10.7556818181818 10.8895089285714  C 10.8579545454545 10.8158482142857  10.9090909090909 10.7217261904762  10.9090909090909 10.6071428571429  L 10.9090909090909 9.82142857142857  C 10.9090909090909 9.70684523809524  10.8579545454545 9.61272321428572  10.7556818181818 9.5390625  C 10.6534090909091 9.46540178571428  10.5227272727273 9.42857142857143  10.3636363636364 9.42857142857143  L 9.27272727272727 9.42857142857143  C 9.11363636363637 9.42857142857143  8.98295454545455 9.46540178571428  8.88068181818182 9.5390625  Z M 8.88068181818182 12.6819196428571  C 8.77840909090909 12.7555803571429  8.72727272727273 12.8497023809524  8.72727272727273 12.9642857142857  L 8.72727272727273 13.75  C 8.72727272727273 13.8645833333333  8.77840909090909 13.9587053571429  8.88068181818182 14.0323660714286  C 8.98295454545455 14.1060267857143  9.11363636363637 14.1428571428571  9.27272727272727 14.1428571428571  L 10.3636363636364 14.1428571428571  C 10.5227272727273 14.1428571428571  10.6534090909091 14.1060267857143  10.7556818181818 14.0323660714286  C 10.8579545454545 13.9587053571429  10.9090909090909 13.8645833333333  10.9090909090909 13.75  L 10.9090909090909 12.9642857142857  C 10.9090909090909 12.8497023809524  10.8579545454545 12.7555803571429  10.7556818181818 12.6819196428571  C 10.6534090909091 12.6082589285714  10.5227272727273 12.5714285714286  10.3636363636364 12.5714285714286  L 9.27272727272727 12.5714285714286  C 9.11363636363637 12.5714285714286  8.98295454545455 12.6082589285714  8.88068181818182 12.6819196428571  Z M 6.39204545454546 17.1752232142857  C 6.49431818181818 17.1015625  6.54545454545455 17.0074404761905  6.54545454545455 16.8928571428571  L 6.54545454545455 16.1071428571429  C 6.54545454545455 15.9925595238095  6.49431818181818 15.8984375  6.39204545454546 15.8247767857143  C 6.28977272727273 15.7511160714286  6.15909090909091 15.7142857142857  6 15.7142857142857  L 4.90909090909091 15.7142857142857  C 4.75 15.7142857142857  4.61931818181818 15.7511160714286  4.51704545454545 15.8247767857143  C 4.41477272727273 15.8984375  4.36363636363636 15.9925595238095  4.36363636363636 16.1071428571429  L 4.36363636363636 16.8928571428571  C 4.36363636363636 17.0074404761905  4.41477272727273 17.1015625  4.51704545454545 17.1752232142857  C 4.61931818181818 17.2488839285714  4.75 17.2857142857143  4.90909090909091 17.2857142857143  L 6 17.2857142857143  C 6.15909090909091 17.2857142857143  6.28977272727273 17.2488839285714  6.39204545454546 17.1752232142857  Z M 6.39204545454546 14.0323660714286  C 6.49431818181818 13.9587053571429  6.54545454545455 13.8645833333333  6.54545454545455 13.75  L 6.54545454545455 12.9642857142857  C 6.54545454545455 12.8497023809524  6.49431818181818 12.7555803571429  6.39204545454546 12.6819196428571  C 6.28977272727273 12.6082589285714  6.15909090909091 12.5714285714286  6 12.5714285714286  L 4.90909090909091 12.5714285714286  C 4.75 12.5714285714286  4.61931818181818 12.6082589285714  4.51704545454545 12.6819196428571  C 4.41477272727273 12.7555803571429  4.36363636363636 12.8497023809524  4.36363636363636 12.9642857142857  L 4.36363636363636 13.75  C 4.36363636363636 13.8645833333333  4.41477272727273 13.9587053571429  4.51704545454545 14.0323660714286  C 4.61931818181818 14.1060267857143  4.75 14.1428571428571  4.90909090909091 14.1428571428571  L 6 14.1428571428571  C 6.15909090909091 14.1428571428571  6.28977272727273 14.1060267857143  6.39204545454546 14.0323660714286  Z M 6.39204545454546 10.8895089285714  C 6.49431818181818 10.8158482142857  6.54545454545455 10.7217261904762  6.54545454545455 10.6071428571429  L 6.54545454545455 9.82142857142857  C 6.54545454545455 9.70684523809524  6.49431818181818 9.61272321428572  6.39204545454546 9.5390625  C 6.28977272727273 9.46540178571428  6.15909090909091 9.42857142857143  6 9.42857142857143  L 4.90909090909091 9.42857142857143  C 4.75 9.42857142857143  4.61931818181818 9.46540178571428  4.51704545454545 9.5390625  C 4.41477272727273 9.61272321428572  4.36363636363636 9.70684523809524  4.36363636363636 9.82142857142857  L 4.36363636363636 10.6071428571429  C 4.36363636363636 10.7217261904762  4.41477272727273 10.8158482142857  4.51704545454545 10.8895089285714  C 4.61931818181818 10.9631696428571  4.75 11  4.90909090909091 11  L 6 11  C 6.15909090909091 11  6.28977272727273 10.9631696428571  6.39204545454546 10.8895089285714  Z M 6.39204545454546 7.74665178571429  C 6.49431818181818 7.67299107142857  6.54545454545455 7.57886904761905  6.54545454545455 7.46428571428571  L 6.54545454545455 6.67857142857143  C 6.54545454545455 6.56398809523809  6.49431818181818 6.46986607142857  6.39204545454546 6.39620535714286  C 6.28977272727273 6.32254464285714  6.15909090909091 6.28571428571429  6 6.28571428571429  L 4.90909090909091 6.28571428571429  C 4.75 6.28571428571429  4.61931818181818 6.32254464285714  4.51704545454545 6.39620535714286  C 4.41477272727273 6.46986607142857  4.36363636363636 6.56398809523809  4.36363636363636 6.67857142857143  L 4.36363636363636 7.46428571428571  C 4.36363636363636 7.57886904761905  4.41477272727273 7.67299107142857  4.51704545454545 7.74665178571429  C 4.61931818181818 7.8203125  4.75 7.85714285714286  4.90909090909091 7.85714285714286  L 6 7.85714285714286  C 6.15909090909091 7.85714285714286  6.28977272727273 7.8203125  6.39204545454546 7.74665178571429  Z M 6.39204545454546 4.60379464285714  C 6.49431818181818 4.53013392857143  6.54545454545455 4.43601190476191  6.54545454545455 4.32142857142857  L 6.54545454545455 3.53571428571429  C 6.54545454545455 3.42113095238095  6.49431818181818 3.32700892857143  6.39204545454546 3.25334821428571  C 6.28977272727273 3.1796875  6.15909090909091 3.14285714285714  6 3.14285714285714  L 4.90909090909091 3.14285714285714  C 4.75 3.14285714285714  4.61931818181818 3.1796875  4.51704545454545 3.25334821428571  C 4.41477272727273 3.32700892857143  4.36363636363636 3.42113095238095  4.36363636363636 3.53571428571429  L 4.36363636363636 4.32142857142857  C 4.36363636363636 4.43601190476191  4.41477272727273 4.53013392857143  4.51704545454545 4.60379464285714  C 4.61931818181818 4.67745535714286  4.75 4.71428571428571  4.90909090909091 4.71428571428571  L 6 4.71428571428571  C 6.15909090909091 4.71428571428571  6.28977272727273 4.67745535714286  6.39204545454546 4.60379464285714  Z M 15.1193181818182 20.3180803571429  C 15.2215909090909 20.2444196428571  15.2727272727273 20.1502976190476  15.2727272727273 20.0357142857143  L 15.2727272727273 17.6785714285714  C 15.2727272727273 17.5639880952381  15.2215909090909 17.4698660714286  15.1193181818182 17.3962053571429  C 15.0170454545455 17.3225446428571  14.8863636363636 17.2857142857143  14.7272727272727 17.2857142857143  L 9.27272727272727 17.2857142857143  C 9.11363636363637 17.2857142857143  8.98295454545455 17.3225446428571  8.88068181818182 17.3962053571429  C 8.77840909090909 17.4698660714286  8.72727272727273 17.5639880952381  8.72727272727273 17.6785714285714  L 8.72727272727273 20.0357142857143  C 8.72727272727273 20.1502976190476  8.77840909090909 20.2444196428571  8.88068181818182 20.3180803571429  C 8.98295454545455 20.3917410714286  9.11363636363637 20.4285714285714  9.27272727272727 20.4285714285714  L 14.7272727272727 20.4285714285714  C 14.8863636363636 20.4285714285714  15.0170454545455 20.3917410714286  15.1193181818182 20.3180803571429  Z M 15.1193181818182 14.0323660714286  C 15.2215909090909 13.9587053571429  15.2727272727273 13.8645833333333  15.2727272727273 13.75  L 15.2727272727273 12.9642857142857  C 15.2727272727273 12.8497023809524  15.2215909090909 12.7555803571429  15.1193181818182 12.6819196428571  C 15.0170454545455 12.6082589285714  14.8863636363636 12.5714285714286  14.7272727272727 12.5714285714286  L 13.6363636363636 12.5714285714286  C 13.4772727272727 12.5714285714286  13.3465909090909 12.6082589285714  13.2443181818182 12.6819196428571  C 13.1420454545455 12.7555803571429  13.0909090909091 12.8497023809524  13.0909090909091 12.9642857142857  L 13.0909090909091 13.75  C 13.0909090909091 13.8645833333333  13.1420454545455 13.9587053571429  13.2443181818182 14.0323660714286  C 13.3465909090909 14.1060267857143  13.4772727272727 14.1428571428571  13.6363636363636 14.1428571428571  L 14.7272727272727 14.1428571428571  C 14.8863636363636 14.1428571428571  15.0170454545455 14.1060267857143  15.1193181818182 14.0323660714286  Z M 15.1193181818182 10.8895089285714  C 15.2215909090909 10.8158482142857  15.2727272727273 10.7217261904762  15.2727272727273 10.6071428571429  L 15.2727272727273 9.82142857142857  C 15.2727272727273 9.70684523809524  15.2215909090909 9.61272321428572  15.1193181818182 9.5390625  C 15.0170454545455 9.46540178571428  14.8863636363636 9.42857142857143  14.7272727272727 9.42857142857143  L 13.6363636363636 9.42857142857143  C 13.4772727272727 9.42857142857143  13.3465909090909 9.46540178571428  13.2443181818182 9.5390625  C 13.1420454545455 9.61272321428572  13.0909090909091 9.70684523809524  13.0909090909091 9.82142857142857  L 13.0909090909091 10.6071428571429  C 13.0909090909091 10.7217261904762  13.1420454545455 10.8158482142857  13.2443181818182 10.8895089285714  C 13.3465909090909 10.9631696428571  13.4772727272727 11  13.6363636363636 11  L 14.7272727272727 11  C 14.8863636363636 11  15.0170454545455 10.9631696428571  15.1193181818182 10.8895089285714  Z M 15.1193181818182 7.74665178571429  C 15.2215909090909 7.67299107142857  15.2727272727273 7.57886904761905  15.2727272727273 7.46428571428571  L 15.2727272727273 6.67857142857143  C 15.2727272727273 6.56398809523809  15.2215909090909 6.46986607142857  15.1193181818182 6.39620535714286  C 15.0170454545455 6.32254464285714  14.8863636363636 6.28571428571429  14.7272727272727 6.28571428571429  L 13.6363636363636 6.28571428571429  C 13.4772727272727 6.28571428571429  13.3465909090909 6.32254464285714  13.2443181818182 6.39620535714286  C 13.1420454545455 6.46986607142857  13.0909090909091 6.56398809523809  13.0909090909091 6.67857142857143  L 13.0909090909091 7.46428571428571  C 13.0909090909091 7.57886904761905  13.1420454545455 7.67299107142857  13.2443181818182 7.74665178571429  C 13.3465909090909 7.8203125  13.4772727272727 7.85714285714286  13.6363636363636 7.85714285714286  L 14.7272727272727 7.85714285714286  C 14.8863636363636 7.85714285714286  15.0170454545455 7.8203125  15.1193181818182 7.74665178571429  Z M 15.1193181818182 4.60379464285714  C 15.2215909090909 4.53013392857143  15.2727272727273 4.43601190476191  15.2727272727273 4.32142857142857  L 15.2727272727273 3.53571428571429  C 15.2727272727273 3.42113095238095  15.2215909090909 3.32700892857143  15.1193181818182 3.25334821428571  C 15.0170454545455 3.1796875  14.8863636363636 3.14285714285714  14.7272727272727 3.14285714285714  L 13.6363636363636 3.14285714285714  C 13.4772727272727 3.14285714285714  13.3465909090909 3.1796875  13.2443181818182 3.25334821428571  C 13.1420454545455 3.32700892857143  13.0909090909091 3.42113095238095  13.0909090909091 3.53571428571429  L 13.0909090909091 4.32142857142857  C 13.0909090909091 4.43601190476191  13.1420454545455 4.53013392857143  13.2443181818182 4.60379464285714  C 13.3465909090909 4.67745535714286  13.4772727272727 4.71428571428571  13.6363636363636 4.71428571428571  L 14.7272727272727 4.71428571428571  C 14.8863636363636 4.71428571428571  15.0170454545455 4.67745535714286  15.1193181818182 4.60379464285714  Z M 19.4829545454545 17.1752232142857  C 19.5852272727273 17.1015625  19.6363636363636 17.0074404761905  19.6363636363636 16.8928571428571  L 19.6363636363636 16.1071428571429  C 19.6363636363636 15.9925595238095  19.5852272727273 15.8984375  19.4829545454545 15.8247767857143  C 19.3806818181818 15.7511160714286  19.25 15.7142857142857  19.0909090909091 15.7142857142857  L 18 15.7142857142857  C 17.8409090909091 15.7142857142857  17.7102272727273 15.7511160714286  17.6079545454545 15.8247767857143  C 17.5056818181818 15.8984375  17.4545454545455 15.9925595238095  17.4545454545455 16.1071428571429  L 17.4545454545455 16.8928571428571  C 17.4545454545455 17.0074404761905  17.5056818181818 17.1015625  17.6079545454545 17.1752232142857  C 17.7102272727273 17.2488839285714  17.8409090909091 17.2857142857143  18 17.2857142857143  L 19.0909090909091 17.2857142857143  C 19.25 17.2857142857143  19.3806818181818 17.2488839285714  19.4829545454545 17.1752232142857  Z M 19.4829545454545 14.0323660714286  C 19.5852272727273 13.9587053571429  19.6363636363636 13.8645833333333  19.6363636363636 13.75  L 19.6363636363636 12.9642857142857  C 19.6363636363636 12.8497023809524  19.5852272727273 12.7555803571429  19.4829545454545 12.6819196428571  C 19.3806818181818 12.6082589285714  19.25 12.5714285714286  19.0909090909091 12.5714285714286  L 18 12.5714285714286  C 17.8409090909091 12.5714285714286  17.7102272727273 12.6082589285714  17.6079545454545 12.6819196428571  C 17.5056818181818 12.7555803571429  17.4545454545455 12.8497023809524  17.4545454545455 12.9642857142857  L 17.4545454545455 13.75  C 17.4545454545455 13.8645833333333  17.5056818181818 13.9587053571429  17.6079545454545 14.0323660714286  C 17.7102272727273 14.1060267857143  17.8409090909091 14.1428571428571  18 14.1428571428571  L 19.0909090909091 14.1428571428571  C 19.25 14.1428571428571  19.3806818181818 14.1060267857143  19.4829545454545 14.0323660714286  Z M 19.4829545454545 10.8895089285714  C 19.5852272727273 10.8158482142857  19.6363636363636 10.7217261904762  19.6363636363636 10.6071428571429  L 19.6363636363636 9.82142857142857  C 19.6363636363636 9.70684523809524  19.5852272727273 9.61272321428572  19.4829545454545 9.5390625  C 19.3806818181818 9.46540178571428  19.25 9.42857142857143  19.0909090909091 9.42857142857143  L 18 9.42857142857143  C 17.8409090909091 9.42857142857143  17.7102272727273 9.46540178571428  17.6079545454545 9.5390625  C 17.5056818181818 9.61272321428572  17.4545454545455 9.70684523809524  17.4545454545455 9.82142857142857  L 17.4545454545455 10.6071428571429  C 17.4545454545455 10.7217261904762  17.5056818181818 10.8158482142857  17.6079545454545 10.8895089285714  C 17.7102272727273 10.9631696428571  17.8409090909091 11  18 11  L 19.0909090909091 11  C 19.25 11  19.3806818181818 10.9631696428571  19.4829545454545 10.8895089285714  Z M 19.4829545454545 7.74665178571429  C 19.5852272727273 7.67299107142857  19.6363636363636 7.57886904761905  19.6363636363636 7.46428571428571  L 19.6363636363636 6.67857142857143  C 19.6363636363636 6.56398809523809  19.5852272727273 6.46986607142857  19.4829545454545 6.39620535714286  C 19.3806818181818 6.32254464285714  19.25 6.28571428571429  19.0909090909091 6.28571428571429  L 18 6.28571428571429  C 17.8409090909091 6.28571428571429  17.7102272727273 6.32254464285714  17.6079545454545 6.39620535714286  C 17.5056818181818 6.46986607142857  17.4545454545455 6.56398809523809  17.4545454545455 6.67857142857143  L 17.4545454545455 7.46428571428571  C 17.4545454545455 7.57886904761905  17.5056818181818 7.67299107142857  17.6079545454545 7.74665178571429  C 17.7102272727273 7.8203125  17.8409090909091 7.85714285714286  18 7.85714285714286  L 19.0909090909091 7.85714285714286  C 19.25 7.85714285714286  19.3806818181818 7.8203125  19.4829545454545 7.74665178571429  Z M 19.4829545454545 4.60379464285714  C 19.5852272727273 4.53013392857143  19.6363636363636 4.43601190476191  19.6363636363636 4.32142857142857  L 19.6363636363636 3.53571428571429  C 19.6363636363636 3.42113095238095  19.5852272727273 3.32700892857143  19.4829545454545 3.25334821428571  C 19.3806818181818 3.1796875  19.25 3.14285714285714  19.0909090909091 3.14285714285714  L 18 3.14285714285714  C 17.8409090909091 3.14285714285714  17.7102272727273 3.1796875  17.6079545454545 3.25334821428571  C 17.5056818181818 3.32700892857143  17.4545454545455 3.42113095238095  17.4545454545455 3.53571428571429  L 17.4545454545455 4.32142857142857  C 17.4545454545455 4.43601190476191  17.5056818181818 4.53013392857143  17.6079545454545 4.60379464285714  C 17.7102272727273 4.67745535714286  17.8409090909091 4.71428571428571  18 4.71428571428571  L 19.0909090909091 4.71428571428571  C 19.25 4.71428571428571  19.3806818181818 4.67745535714286  19.4829545454545 4.60379464285714  Z " fill-rule="nonzero" fill="#000000" stroke="none" transform="matrix(1 0 0 1 36 1167 )" />
  </g>
</svg>