<?xml version="1.0" encoding="utf-8"?>
<svg version="1.1" xmlns:xlink="http://www.w3.org/1999/xlink" width="42px" height="50px" xmlns="http://www.w3.org/2000/svg">
  <g transform="matrix(1 0 0 1 -586 -1017 )">
    <path d="M 13.9005681818182 10.3215144230769  C 14.1193181818182 10.5518830128205  14.3877840909091 10.6670673076923  14.7059659090909 10.6670673076923  C 15.0241477272727 10.6670673076923  15.2975852272727 10.5518830128205  15.5262784090909 10.3215144230769  C 15.7549715909091 10.0911458333333  15.8693181818182 9.81570512820512  15.8693181818182 9.49519230769231  C 15.8693181818182 9.17467948717948  15.7549715909091 8.89923878205128  15.5262784090909 8.66887019230769  C 15.2975852272727 8.4385016025641  15.0241477272727 8.32331730769231  14.7059659090909 8.32331730769231  C 14.3877840909091 8.32331730769231  14.1193181818182 8.4385016025641  13.9005681818182 8.66887019230769  C 13.6818181818182 8.89923878205128  13.5724431818182 9.17467948717948  13.5724431818182 9.49519230769231  C 13.5724431818182 9.81570512820512  13.6818181818182 10.0911458333333  13.9005681818182 10.3215144230769  Z M 26.4737215909091 10.3215144230769  C 26.7024147727273 10.5518830128205  26.9758522727273 10.6670673076923  27.2940340909091 10.6670673076923  C 27.6122159090909 10.6670673076923  27.8806818181818 10.5518830128205  28.0994318181818 10.3215144230769  C 28.3181818181818 10.0911458333333  28.4275568181818 9.81570512820512  28.4275568181818 9.49519230769231  C 28.4275568181818 9.17467948717948  28.3181818181818 8.89923878205128  28.0994318181818 8.66887019230769  C 27.8806818181818 8.4385016025641  27.6122159090909 8.32331730769231  27.2940340909091 8.32331730769231  C 26.9758522727273 8.32331730769231  26.7024147727273 8.4385016025641  26.4737215909091 8.66887019230769  C 26.2450284090909 8.89923878205128  26.1306818181818 9.17467948717948  26.1306818181818 9.49519230769231  C 26.1306818181818 9.81570512820512  26.2450284090909 10.0911458333333  26.4737215909091 10.3215144230769  Z M 0.894886363636364 17.0973557692308  C 1.49147727272727 16.4963942307692  2.21732954545455 16.1959134615385  3.07244318181818 16.1959134615385  C 3.90767045454545 16.1959134615385  4.62357954545455 16.4963942307692  5.22017045454545 17.0973557692308  C 5.81676136363636 17.6983173076923  6.11505681818182 18.4194711538462  6.11505681818182 19.2608173076923  L 6.11505681818182 32.1814903846154  C 6.11505681818182 33.0428685897436  5.82173295454546 33.7740384615385  5.23508522727273 34.375  C 4.6484375 34.9759615384615  3.92755681818182 35.2764423076923  3.07244318181818 35.2764423076923  C 2.21732954545455 35.2764423076923  1.49147727272727 34.9759615384615  0.894886363636364 34.375  C 0.298295454545455 33.7740384615385  0 33.0428685897436  0 32.1814903846154  L 0 19.2608173076923  C 0 18.4194711538462  0.298295454545455 17.6983173076923  0.894886363636364 17.0973557692308  Z M 8 17  L 34 17  L 34 36.7788461538462  C 34.6917613636364 37.7003205128205  34.3735795454545 38.4815705128205  33.7372159090909 39.1225961538462  C 33.1008522727273 39.7636217948718  32.3352272727273 40.0841346153846  31.4403409090909 40.0841346153846  L 29.203125 40.0841346153846  L 29.203125 46.9050480769231  C 29.203125 47.7664262820513  28.9048295454545 48.4975961538462  28.3082386363636 49.0985576923077  C 27.7116477272727 49.6995192307692  26.9857954545455 50  26.1306818181818 50  C 25.2755681818182 50  24.5497159090909 49.6995192307692  23.953125 49.0985576923077  C 23.3565340909091 48.4975961538462  23.0582386363636 47.7664262820513  23.0582386363636 46.9050480769231  L 23.0582386363636 40.0841346153846  L 18.9417613636364 40.0841346153846  L 18.9417613636364 46.9050480769231  C 18.9417613636364 47.7664262820513  18.6434659090909 48.4975961538462  18.046875 49.0985576923077  C 17.4502840909091 49.6995192307692  16.7244318181818 50  15.8693181818182 50  C 15.0340909090909 50  14.3181818181818 49.6995192307692  13.7215909090909 49.0985576923077  C 13.125 48.4975961538462  12.8267045454545 47.7664262820513  12.8267045454545 46.9050480769231  L 12.796875 40.0841346153846  L 10.5894886363636 40.0841346153846  C 9.67471590909091 40.0841346153846  8.89914772727273 39.7636217948718  8.26278409090909 39.1225961538462  C 7.62642045454546 38.4815705128205  7.30823863636364 37.7003205128205  8 36.7788461538462  L 8 17  Z M 29.8892045454545 0.661057692307693  L 27.7713068181818 4.59735576923077  C 29.8991477272727 5.69911858974359  31.5994318181818 7.23657852564102  32.8721590909091 9.20973557692308  C 34.1448863636364 11.1828926282051  34.78125 13.3413461538462  34.78125 16  L 7.18892045454546 16  C 7.18892045454546 13.3413461538462  7.82528409090909 11.1828926282051  9.09801136363636 9.20973557692308  C 10.3707386363636 7.23657852564102  12.0809659090909 5.69911858974359  14.2286931818182 4.59735576923077  L 12.1107954545455 0.661057692307693  C 11.9715909090909 0.400641025641024  12.0213068181818 0.200320512820507  12.2599431818182 0.0600961538461564  C 12.5184659090909 -0.0600961538461564  12.7173295454545 0  12.8565340909091 0.240384615384615  L 15.0042613636364 4.20673076923077  C 16.8934659090909 3.36538461538461  18.8920454545455 2.94471153846154  21 2.94471153846154  C 23.1079545454546 2.94471153846154  25.1065340909091 3.36538461538461  26.9957386363636 4.20673076923077  L 29.1434659090909 0.240384615384615  C 29.2826704545455 0  29.4815340909091 -0.0600961538461564  29.7400568181818 0.0600961538461564  C 29.9786931818182 0.200320512820507  30.0284090909091 0.400641025641024  29.8892045454545 0.661057692307693  Z M 41.1051136363636 17.0823317307692  C 41.7017045454545 17.6732772435897  42 18.3994391025641  42 19.2608173076923  L 42 32.1814903846154  C 42 33.0428685897436  41.7017045454545 33.7740384615385  41.1051136363636 34.375  C 40.5085227272727 34.9759615384615  39.7826704545455 35.2764423076923  38.9275568181818 35.2764423076923  C 38.0923295454545 35.2764423076923  37.3764204545455 34.9759615384615  36.7798295454545 34.375  C 36.1832386363636 33.7740384615385  35.8849431818182 33.0428685897436  35.8849431818182 32.1814903846154  L 35.8849431818182 19.2608173076923  C 35.8849431818182 18.3994391025641  36.1832386363636 17.6732772435897  36.7798295454545 17.0823317307692  C 37.3764204545455 16.4913862179487  38.0923295454545 16.1959134615385  38.9275568181818 16.1959134615385  C 39.7826704545455 16.1959134615385  40.5085227272727 16.4913862179487  41.1051136363636 17.0823317307692  Z " fill-rule="nonzero" fill="#000000" stroke="none" transform="matrix(1 0 0 1 586 1017 )" />
  </g>
</svg>