<?xml version="1.0" encoding="utf-8"?>
<svg version="1.1" xmlns:xlink="http://www.w3.org/1999/xlink" width="71px" height="64px" xmlns="http://www.w3.org/2000/svg">
  <g transform="matrix(1 0 0 1 -19 -13 )">
    <path d="M 54.5 13  C 74.38 13  90 27.08  90 45  C 90 62.92  74.38 77  54.5 77  C 34.62 77  19 62.92  19 45  C 19 27.08  34.62 13  54.5 13  Z " fill-rule="nonzero" fill="#ffffff" stroke="none" />
    <path d="M 54.5 13.5  C 74.1 13.5  89.5 27.36  89.5 45  C 89.5 62.64  74.1 76.5  54.5 76.5  C 34.9 76.5  19.5 62.64  19.5 45  C 19.5 27.36  34.9 13.5  54.5 13.5  Z " stroke-width="1" stroke="#797979" fill="none" />
  </g>
</svg>