<?xml version="1.0" encoding="utf-8"?>
<svg version="1.1" xmlns:xlink="http://www.w3.org/1999/xlink" width="22px" height="21px" xmlns="http://www.w3.org/2000/svg">
  <g transform="matrix(1 0 0 1 -877 -1110 )">
    <path d="M 14.3373632700058 18.87890625  C 15.941661869123 18.56640625  17.5924006908463 18.0390625  19.2895797351756 17.296875  C 19.4162348877375 17.25  19.5260026866245 17.23828125  19.6188831318365 17.26171875  C 19.7117635770486 17.28515625  19.7582037996546 17.353515625  19.7582037996546 17.466796875  C 19.7582037996546 17.580078125  19.6948762233736 17.7109375  19.5682210708117 17.859375  C 19.4584532719248 17.984375  19.2726923815007 18.154296875  19.0109383995394 18.369140625  C 18.7491844175782 18.583984375  18.3459988485895 18.849609375  17.8013816925734 19.166015625  C 17.2567645365573 19.482421875  16.6614853195164 19.771484375  16.0155440414508 20.033203125  C 15.3696027633851 20.294921875  14.575897140664 20.521484375  13.6344271732873 20.712890625  C 12.6929572059106 20.904296875  11.7240452888121 21  10.7276914219919 21  C 9.72289387833429 21  8.71809633467665 20.87890625  7.713298791019 20.63671875  C 6.70850124736135 20.39453125  5.82613701784686 20.095703125  5.06620610247553 19.740234375  C 4.3062751871042 19.384765625  3.57800805987335 18.978515625  2.88140472078296 18.521484375  C 2.18480138169257 18.064453125  1.6254077912109 17.654296875  1.20322394933794 17.291015625  C 0.781040107464978 16.927734375  0.426405680291691 16.5859375  0.139320667818077 16.265625  C 0.0717712531184034 16.1953125  0.0295528689311073 16.130859375  0.0126655152561888 16.072265625  C -0.00422183841872955 16.013671875  0 15.966796875  0.0253310305123777 15.931640625  C 0.0506620610247553 15.896484375  0.0844367683745923 15.869140625  0.126655152561888 15.849609375  C 0.168873536749184 15.830078125  0.217424678564575 15.822265625  0.27230857800806 15.826171875  C 0.327192477451545 15.830078125  0.375743619266935 15.84765625  0.417962003454231 15.87890625  C 2.0391479562464 16.79296875  3.30569948186529 17.44140625  4.21761658031088 17.82421875  C 7.50220687008252 19.19921875  10.8754557666475 19.55078125  14.3373632700058 18.87890625  Z M 20.9487622337363 15.66796875  C 21.4722701976588 15.71484375  21.7931299174823 15.80859375  21.9113413932067 15.94921875  C 22.0042218384187 16.07421875  22.0147764344656 16.345703125  21.9430051813472 16.763671875  C 21.8712339282287 17.181640625  21.750911533295 17.58203125  21.5820379965458 17.96484375  C 21.2949529840722 18.61328125  20.9360967184801 19.09765625  20.5054691997697 19.41796875  C 20.3619266935329 19.52734375  20.2521588946459 19.5625  20.1761658031088 19.5234375  C 20.1001727115717 19.484375  20.1001727115717 19.390625  20.1761658031088 19.2421875  C 20.3534830166955 18.890625  20.5413548263289 18.416015625  20.7397812320092 17.818359375  C 20.9382076376895 17.220703125  20.9656495874112 16.8359375  20.8221070811744 16.6640625  C 20.7798886969871 16.609375  20.7144502014968 16.564453125  20.6257915947035 16.529296875  C 20.5371329879102 16.494140625  20.4231433506045 16.470703125  20.2838226827864 16.458984375  C 20.1445020149683 16.447265625  20.0199577816158 16.4375  19.9101899827288 16.4296875  C 19.8004221838419 16.421875  19.6526578391863 16.421875  19.4668969487622 16.4296875  C 19.2811360583381 16.4375  19.1481481481481 16.4453125  19.0679332181923 16.453125  C 18.9877182882364 16.4609375  18.8568412972558 16.47265625  18.6753022452504 16.48828125  C 18.4937631932451 16.50390625  18.3987718288236 16.51171875  18.3903281519862 16.51171875  C 18.3396660909614 16.51953125  18.2847821915179 16.525390625  18.2256764536557 16.529296875  C 18.1665707157935 16.533203125  18.1201304931875 16.537109375  18.0863557858377 16.541015625  C 18.0525810784878 16.544921875  18.0166954519286 16.548828125  17.97869890616 16.552734375  C 17.9407023603915 16.556640625  17.9111494914604 16.55859375  17.8900402993667 16.55859375  L 17.8203799654577 16.55859375  L 17.7633851468048 16.55859375  C 17.7633851468048 16.55859375  17.7507196315486 16.556640625  17.7253886010363 16.552734375  C 17.7000575705239 16.548828125  17.6916138936864 16.54296875  17.7000575705239 16.53515625  L 17.6810592976396 16.5  C 17.6303972366149 16.375  17.8288236422951 16.21875  18.2763385146805 16.03125  C 18.7238533870658 15.84375  19.158702744195 15.7265625  19.5808865860679 15.6796875  C 19.9692957205911 15.625  20.4252542698139 15.62109375  20.9487622337363 15.66796875  Z M 16.9211283822683 3.85546875  L 16.9211283822683 10.7578125  C 16.9211283822683 11  16.9781232009211 11.25  17.0921128382268 11.5078125  C 17.2061024755325 11.765625  17.3412013049319 11.9921875  17.4974093264249 12.1875  C 17.6536173479179 12.3828125  17.8119362886202 12.5625  17.972366148532 12.7265625  C 18.1327960084437 12.890625  18.2721166762618 13.015625  18.3903281519862 13.1015625  L 18.5549798503166 13.23046875  L 15.6799078871618 15.85546875  C 15.3421608136634 15.56640625  15.0086355785838 15.271484375  14.6793321819229 14.970703125  C 14.3500287852619 14.669921875  14.1051621569756 14.44140625  13.9447322970639 14.28515625  L 13.7040875071963 14.05078125  C 13.6112070619843 13.96484375  13.505661101516 13.8359375  13.3874496257916 13.6640625  C 13.0665899059681 14.125  12.654960660142 14.525390625  12.1525618883132 14.865234375  C 11.6501631164844 15.205078125  11.1118787180963 15.453125  10.5377086931491 15.609375  C 9.96353866820188 15.765625  9.37248128957974 15.85546875  8.76453655728267 15.87890625  C 8.15659182498561 15.90234375  7.57608904241029 15.8203125  7.02302820955671 15.6328125  C 6.46996737670313 15.4453125  5.9739013625024 15.189453125  5.53483016695452 14.865234375  C 5.09575897140664 14.541015625  4.74534638265208 14.099609375  4.48359240069085 13.541015625  C 4.22183841872961 12.982421875  4.09096142774899 12.34765625  4.09096142774899 11.63671875  C 4.09096142774899 10.98046875  4.20917290347342 10.37890625  4.44559585492228 9.83203125  C 4.68201880637114 9.28515625  4.98599117251967 8.830078125  5.35751295336788 8.466796875  C 5.72903473421608 8.103515625  6.17866052581079 7.779296875  6.70639032815199 7.494140625  C 7.23412013049319 7.208984375  7.75129533678756 6.986328125  8.25791594703512 6.826171875  C 8.76453655728267 6.666015625  9.31337555171752 6.53125  9.90443293033967 6.421875  C 10.4954903089618 6.3125  11 6.240234375  11.4179620034542 6.205078125  C 11.8359240069085 6.169921875  12.2559969295721 6.14453125  12.678180771445 6.12890625  L 12.678180771445 4.640625  C 12.678180771445 4.1328125  12.5895221646517 3.75390625  12.4122049510651 3.50390625  C 12.1251199385914 3.08984375  11.6142774899252 2.8828125  10.8796776050662 2.8828125  C 10.8290155440415 2.8828125  10.7593552101324 2.88671875  10.6706966033391 2.89453125  C 10.5820379965458 2.90234375  10.4110535405872 2.94921875  10.1577432354634 3.03515625  C 9.90443293033967 3.12109375  9.66800997889081 3.236328125  9.44847438111687 3.380859375  C 9.22893878334293 3.525390625  8.99251583189407 3.7578125  8.73920552677029 4.078125  C 8.48589522164652 4.3984375  8.2832469775475 4.7734375  8.13126079447323 5.203125  L 4.40759930915371 4.88671875  C 4.40759930915371 4.41796875  4.50047975436577 3.953125  4.68624064478987 3.4921875  C 4.87200153521397 3.03125  5.15486470926886 2.58984375  5.53483016695452 2.16796875  C 5.91479562464018 1.74609375  6.37075417386298 1.375  6.90270581462291 1.0546875  C 7.43465745538284 0.734374999999999  8.07426597582038 0.478515624999998  8.82153137593552 0.287109375  C 9.56879677605066 0.0957031250000016  10.3730569948187 0  11.2343120322395 0  C 12.0786797159854 0  12.8428324697755 0.0976562500000011  13.5267702936097 0.292968750000001  C 14.2107081174439 0.488281249999999  14.7574361926694 0.728515624999998  15.1669545192861 1.013671875  C 15.5764728459029 1.298828125  15.91844175782 1.623046875  16.1928612550374 1.986328125  C 16.4672807522548 2.349609375  16.6572634810977 2.685546875  16.7628094415659 2.994140625  C 16.8683554020342 3.302734375  16.9211283822683 3.58984375  16.9211283822683 3.85546875  Z M 8.82153137593552 9.662109375  C 8.5471118787181 10.033203125  8.40990213010938 10.48046875  8.40990213010938 11.00390625  C 8.40990213010938 11.67578125  8.70543081942046 12.1953125  9.2964881980426 12.5625  C 9.85377086931491 12.90625  10.4406064095183 12.9921875  11.0569948186528 12.8203125  C 11.7662636729994 12.625  12.2475532527346 12.14453125  12.5008635578584 11.37890625  C 12.6190750335828 11.02734375  12.678180771445 10.6328125  12.678180771445 10.1953125  L 12.678180771445 8.296875  C 12.1800038380349 8.3125  11.7113797735559 8.359375  11.2723085780081 8.4375  C 10.8332373824602 8.515625  10.3836115908655 8.646484375  9.92343120322395 8.830078125  C 9.46325081558242 9.013671875  9.09595087315295 9.291015625  8.82153137593552 9.662109375  Z " fill-rule="nonzero" fill="#000000" stroke="none" transform="matrix(1 0 0 1 877 1110 )" />
  </g>
</svg>