<?xml version="1.0" encoding="utf-8"?>
<svg version="1.1" xmlns:xlink="http://www.w3.org/1999/xlink" width="26px" height="24px" xmlns="http://www.w3.org/2000/svg">
  <g transform="matrix(1 0 0 1 -875 -1137 )">
    <path d="M 10.9252232142857 21.7633928571429  C 11.553943452381 21.8705357142857  12.1391369047619 21.9285714285714  12.6808035714286 21.9375  L 12.6808035714286 22.8214285714286  C 10.6688988095238 22.7678571428571  8.80691964285714 22.2790178571429  7.09486607142857 21.3549107142857  C 5.3828125 20.4308035714286  4.01413690476191 19.2008928571429  2.98883928571429 17.6651785714286  L 3.83035714285714 17.2098214285714  C 4.1108630952381 17.6473214285714  4.46391369047619 18.0892857142857  4.88950892857143 18.5357142857143  L 5.83258928571429 17.7723214285714  C 7.26413690476191 19.2723214285714  9.04389880952381 20.21875  11.171875 20.6116071428571  L 10.9252232142857 21.7633928571429  Z M 3.48214285714286 12  C 3.48214285714286 12.9732142857143  3.65625 13.9196428571429  4.00446428571429 14.8392857142857  L 2.80022321428571 15.2142857142857  C 3.01302083333333 15.75  3.25 16.25  3.51116071428571 16.7142857142857  L 2.68415178571429 17.15625  C 1.73623511904762 15.5491071428571  1.26227678571429 13.8303571428571  1.26227678571429 12  C 1.26227678571429 10.1696428571429  1.73623511904762 8.45089285714286  2.68415178571429 6.84375  L 3.51116071428571 7.28571428571429  C 3.22098214285714 7.78571428571428  2.98400297619048 8.28571428571428  2.80022321428571 8.78571428571429  L 3.98995535714286 9.16071428571429  C 3.65141369047619 10.0535714285714  3.48214285714286 11  3.48214285714286 12  Z M 21.1104910714286 18.5357142857143  C 21.5360863095238 18.0892857142857  21.8891369047619 17.6473214285714  22.1696428571429 17.2098214285714  L 23.0111607142857 17.6651785714286  C 21.9858630952381 19.2008928571429  20.6171875 20.4308035714286  18.9051339285714 21.3549107142857  C 17.1930803571429 22.2790178571429  15.3311011904762 22.7678571428571  13.3191964285714 22.8214285714286  L 13.3191964285714 21.9375  C 13.8608630952381 21.9285714285714  14.446056547619 21.8705357142857  15.0747767857143 21.7633928571429  L 14.828125 20.6116071428571  C 16.9561011904762 20.21875  18.7358630952381 19.2723214285714  20.1674107142857 17.7723214285714  L 21.1104910714286 18.5357142857143  Z M 18.5424107142857 7.52678571428571  C 19.1808035714286 8.20535714285714  19.6595982142857 8.95982142857143  19.9787946428571 9.79017857142857  L 16.5982142857143 10.8616071428571  C 16.733630952381 11.2366071428571  16.8013392857143 11.6160714285714  16.8013392857143 12  C 16.8013392857143 12.3839285714286  16.733630952381 12.7633928571429  16.5982142857143 13.1383928571429  L 19.9642857142857 14.2098214285714  C 19.6644345238095 15.03125  19.1904761904762 15.7857142857143  18.5424107142857 16.4732142857143  L 15.8582589285714 14.3035714285714  C 15.3069196428571 14.9017857142857  14.5959821428571 15.28125  13.7254464285714 15.4419642857143  L 14.421875 18.6696428571429  C 13.9188988095238 18.7589285714286  13.4449404761905 18.8035714285714  13 18.8035714285714  C 12.5550595238095 18.8035714285714  12.0811011904762 18.7589285714286  11.578125 18.6696428571429  L 12.2745535714286 15.4419642857143  C 11.4040178571429 15.28125  10.6930803571429 14.9017857142857  10.1417410714286 14.3035714285714  L 7.45758928571429 16.4732142857143  C 6.80952380952381 15.7857142857143  6.33556547619048 15.03125  6.03571428571429 14.2098214285714  L 9.40178571428571 13.1383928571429  C 9.26636904761905 12.7633928571429  9.19866071428571 12.3839285714286  9.19866071428571 12  C 9.19866071428571 11.6160714285714  9.26636904761905 11.2366071428571  9.40178571428571 10.8616071428571  L 6.02120535714286 9.79017857142857  C 6.34040178571429 8.95982142857143  6.81919642857143 8.20535714285714  7.45758928571429 7.52678571428571  L 10.1417410714286 9.69642857142857  C 10.7124255952381 9.08928571428571  11.4233630952381 8.70535714285714  12.2745535714286 8.54464285714286  L 11.578125 5.33035714285714  C 12.0037202380952 5.24107142857143  12.4776785714286 5.19642857142857  13 5.19642857142857  C 13.5223214285714 5.19642857142857  13.9962797619048 5.24107142857143  14.421875 5.33035714285714  L 13.7254464285714 8.54464285714286  C 14.5766369047619 8.70535714285714  15.2875744047619 9.08928571428571  15.8582589285714 9.69642857142857  L 18.5424107142857 7.52678571428571  Z M 7.09486607142857 2.64508928571429  C 8.79724702380952 1.72098214285714  10.6592261904762 1.23214285714286  12.6808035714286 1.17857142857143  L 12.6808035714286 2.0625  C 12.0520833333333 2.08035714285714  11.4668898809524 2.13839285714286  10.9252232142857 2.23660714285714  L 11.171875 3.38839285714286  C 9.04389880952381 3.76339285714286  7.26413690476191 4.70535714285714  5.83258928571429 6.21428571428571  L 4.88950892857143 5.46428571428571  C 4.52194940476191 5.83928571428571  4.16889880952381 6.27678571428571  3.83035714285714 6.77678571428571  L 3.00334821428571 6.33482142857143  C 4.02864583333333 4.79910714285714  5.39248511904762 3.56919642857143  7.09486607142857 2.64508928571429  Z M 23.3158482142857 6.84375  C 24.2637648809524 8.45089285714286  24.7377232142857 10.1696428571429  24.7377232142857 12  C 24.7377232142857 13.8303571428571  24.2637648809524 15.5491071428571  23.3158482142857 17.15625  L 22.4888392857143 16.7142857142857  C 22.75 16.25  22.9869791666667 15.75  23.1997767857143 15.2142857142857  L 21.9955357142857 14.8392857142857  C 22.34375 13.9196428571429  22.5178571428571 12.9732142857143  22.5178571428571 12  C 22.5178571428571 11  22.3485863095238 10.0535714285714  22.0100446428571 9.16071428571429  L 23.1997767857143 8.78571428571429  C 23.0159970238095 8.28571428571428  22.7790178571429 7.78571428571428  22.4888392857143 7.28571428571429  L 23.3158482142857 6.84375  Z M 18.9051339285714 2.64508928571429  C 20.6075148809524 3.56919642857143  21.9713541666667 4.79910714285714  22.9966517857143 6.33482142857143  L 22.1696428571429 6.77678571428571  C 21.8311011904762 6.27678571428571  21.4780505952381 5.83928571428571  21.1104910714286 5.46428571428571  L 20.1674107142857 6.21428571428571  C 18.7358630952381 4.70535714285714  16.9561011904762 3.76339285714286  14.828125 3.38839285714286  L 15.0747767857143 2.23660714285714  C 14.5331101190476 2.13839285714286  13.9479166666667 2.08035714285714  13.3191964285714 2.0625  L 13.3191964285714 1.17857142857143  C 15.3407738095238 1.23214285714286  17.2027529761905 1.72098214285714  18.9051339285714 2.64508928571429  Z M 24.3822544642857 16.4330357142857  C 25.03515625 15.0223214285714  25.3616071428571 13.5446428571429  25.3616071428571 12  C 25.3616071428571 10.4553571428571  25.03515625 8.97767857142857  24.3822544642857 7.56696428571429  C 23.7293526785714 6.15625  22.8515625 4.94196428571429  21.7488839285714 3.92410714285714  C 20.6462053571429 2.90625  19.3307291666667 2.09598214285714  17.8024553571429 1.49330357142857  C 16.274181547619 0.890625  14.6733630952381 0.589285714285714  13 0.589285714285714  C 11.3266369047619 0.589285714285714  9.72581845238095 0.890625  8.19754464285714 1.49330357142857  C 6.66927083333333 2.09598214285714  5.35379464285714 2.90625  4.25111607142857 3.92410714285714  C 3.1484375 4.94196428571429  2.27064732142857 6.15625  1.61774553571429 7.56696428571429  C 0.96484375 8.97767857142857  0.638392857142857 10.4553571428571  0.638392857142857 12  C 0.638392857142857 13.5446428571429  0.96484375 15.0223214285714  1.61774553571429 16.4330357142857  C 2.27064732142857 17.84375  3.1484375 19.0580357142857  4.25111607142857 20.0758928571429  C 5.35379464285714 21.09375  6.66927083333333 21.9040178571429  8.19754464285714 22.5066964285714  C 9.72581845238095 23.109375  11.3266369047619 23.4107142857143  13 23.4107142857143  C 14.6733630952381 23.4107142857143  16.274181547619 23.109375  17.8024553571429 22.5066964285714  C 19.3307291666667 21.9040178571429  20.6462053571429 21.09375  21.7488839285714 20.0758928571429  C 22.8515625 19.0580357142857  23.7293526785714 17.84375  24.3822544642857 16.4330357142857  Z M 24.9698660714286 7.33928571428571  C 25.6566220238095 8.82142857142857  26 10.375  26 12  C 26 13.625  25.6566220238095 15.1785714285714  24.9698660714286 16.6607142857143  C 24.2831101190476 18.1428571428571  23.359375 19.4196428571429  22.1986607142857 20.4910714285714  C 21.0379464285714 21.5625  19.6547619047619 22.4151785714286  18.0491071428571 23.0491071428571  C 16.4434523809524 23.6830357142857  14.7604166666667 24  13 24  C 11.2395833333333 24  9.55654761904762 23.6830357142857  7.95089285714286 23.0491071428571  C 6.3452380952381 22.4151785714286  4.96205357142857 21.5625  3.80133928571429 20.4910714285714  C 2.640625 19.4196428571429  1.71688988095238 18.1428571428571  1.03013392857143 16.6607142857143  C 0.343377976190476 15.1785714285714  0 13.625  0 12  C 0 10.375  0.343377976190476 8.82142857142857  1.03013392857143 7.33928571428571  C 1.71688988095238 5.85714285714286  2.640625 4.58035714285714  3.80133928571429 3.50892857142857  C 4.96205357142857 2.4375  6.3452380952381 1.58482142857143  7.95089285714286 0.950892857142857  C 9.55654761904762 0.316964285714286  11.2395833333333 0  13 0  C 14.7604166666667 0  16.4434523809524 0.316964285714286  18.0491071428571 0.950892857142857  C 19.6547619047619 1.58482142857143  21.0379464285714 2.4375  22.1986607142857 3.50892857142857  C 23.359375 4.58035714285714  24.2831101190476 5.85714285714286  24.9698660714286 7.33928571428571  Z " fill-rule="nonzero" fill="#000000" stroke="none" transform="matrix(1 0 0 1 875 1137 )" />
  </g>
</svg>