<?xml version="1.0" encoding="utf-8"?>
<svg version="1.1" xmlns:xlink="http://www.w3.org/1999/xlink" width="27px" height="26px" xmlns="http://www.w3.org/2000/svg">
  <g transform="matrix(1 0 0 1 -874 -1165 )">
    <path d="M 0.945076835515083 17.8024553571429  C 0.263801935116676 16.1677827380952  -0.0461013090495162 14.4605654761905  0.0153671030165054 12.6808035714286  C 0.097324985771201 10.5818452380952  0.691519635742743 8.61830357142857  1.79795105293113 6.79017857142857  C 2.90438247011952 4.96205357142857  4.4667046101309 3.42410714285714  6.48491747296528 2.17633928571428  L 6.56175298804781 2.17633928571428  C 6.56175298804781 2.1860119047619  6.55663062037564 2.20052083333333  6.5463858850313 2.21986607142857  C 6.46442800227661 2.29724702380952  6.32100170745589 2.45926339285714  6.11610700056915 2.70591517857143  C 5.91121229368241 2.95256696428572  5.64484917472965 3.32254464285714  5.31701764371087 3.81584821428572  C 4.98918611269209 4.30915178571428  4.68184405236198 4.84356398809524  4.39499146272055 5.41908482142857  C 4.10813887307911 5.9946056547619  3.88019351166762 6.64992559523809  3.71115537848606 7.38504464285714  C 3.5421172453045 8.12016369047619  3.47040409789414 8.84802827380952  3.49601593625498 9.56863839285714  C 3.52162777461582 10.2892485119048  3.72140011383039 11.0509672619048  4.09533295389869 11.8537946428571  C 4.46926579396699 12.6566220238095  5.02504268639727 13.4014136904762  5.76266363118953 14.0881696428571  C 6.27490039840638 14.5718005952381  6.79738190096756 14.9079241071429  7.33010813887308 15.0965401785714  C 7.8628343767786 15.28515625  8.32640865110985 15.3407738095238  8.72083096186682 15.2633928571429  C 9.11525327262379 15.1860119047619  9.4712578258395 15.0723586309524  9.78884462151395 14.9224330357143  C 10.1064314171884 14.7725074404762  10.3471826977803 14.6153273809524  10.5110984632897 14.4508928571429  L 10.7569721115538 14.21875  C 11.1565167899829 13.7254464285714  11.4280022766079 13.1620163690476  11.5714285714286 12.5284598214286  C 11.7148548662493 11.8949032738095  11.7481502561184 11.3024553571429  11.6713147410359 10.7511160714286  C 11.5944792259533 10.1997767857143  11.4869095048378 9.68229166666666  11.3486055776892 9.19866071428572  C 11.2103016505407 8.71502976190476  11.0745589072282 8.328125  10.9413773477518 8.03794642857143  L 10.7262379055208 7.6171875  C 10.6237905520774 7.37537202380952  10.4675583380763 7.13597470238095  10.2575412635174 6.89899553571428  C 10.0475241889585 6.66201636904762  9.82726237905521 6.46372767857143  9.59675583380763 6.30412946428572  C 9.36624928856005 6.14453125  9.14342629482072 6.00186011904762  8.92828685258964 5.87611607142857  C 8.71314741035857 5.75037202380952  8.53386454183267 5.65848214285714  8.39043824701195 5.60044642857143  L 8.19066590779738 5.51339285714286  L 9.78884462151395 3.84486607142857  C 10.1883892999431 4.00930059523809  10.5879339783722 4.26078869047619  10.9874786568014 4.59933035714286  C 11.3870233352305 4.93787202380952  11.6892430278884 5.2328869047619  11.8941377347752 5.484375  L 12.1861126920888 5.87611607142857  C 12.1963574274331 5.41183035714286  12.101593625498 4.91127232142857  11.9018212862834 4.37444196428572  C 11.7020489470689 3.83761160714286  11.494593056346 3.41443452380952  11.279453614115 3.10491071428572  L 10.9721115537849 2.65513392857143  L 13.4462151394422 0  L 15.9049516220831 2.62611607142857  C 15.56687535572 3.07105654761904  15.2979510529311 3.56677827380952  15.0981787137166 4.11328125  C 14.898406374502 4.65978422619047  14.7831531018782 5.09747023809524  14.7524188958452 5.42633928571428  L 14.6909504837792 5.90513392857143  C 14.9163346613546 5.54724702380952  15.2313602731929 5.19661458333333  15.6360273192943 4.85323660714286  C 16.0406943653956 4.50985863095238  16.3864541832669 4.25595238095238  16.6733067729084 4.09151785714286  L 17.1035856573705 3.84486607142857  L 18.6863972680706 5.51339285714286  C 18.2356289129198 5.64880952380952  17.8002276607854 5.890625  17.3801935116676 6.23883928571428  C 16.9601593625498 6.58705357142857  16.6528173022197 6.90141369047619  16.4581673306773 7.18191964285714  L 16.1661923733637 7.60267857142857  C 15.8486055776892 8.14434523809524  15.6027319294252 8.78999255952381  15.4285714285714 9.53962053571428  C 15.2544109277177 10.2892485119048  15.2185543540125 11.1114211309524  15.3210017074559 12.0061383928571  C 15.4234490608993 12.9008556547619  15.7154240182129 13.6577380952381  16.1969265793967 14.2767857142857  C 16.5350028457598 14.7120535714286  16.9319863403529 15.004650297619  17.3878770631759 15.1545758928571  C 17.8437677859989 15.3045014880952  18.2791690381332 15.3311011904762  18.6940808195788 15.234375  C 19.1089926010245 15.1376488095238  19.4982925441093 15.0094866071429  19.8619806488332 14.8498883928571  C 20.2256687535572 14.6902901785714  20.5202048947069 14.5282738095238  20.7455890722823 14.3638392857143  L 21.0682982356289 14.1316964285714  C 21.6829823562891 13.6190476190476  22.1772908366534 13.0628720238095  22.5512236767217 12.4631696428571  C 22.92515651679 11.8634672619048  23.1735913488902 11.2758556547619  23.2965281730222 10.7003348214286  C 23.4194649971542 10.1248139880952  23.4706886738759 9.53720238095238  23.4501992031873 8.9375  C 23.4297097324986 8.33779761904762  23.3375071143996 7.76711309523809  23.1735913488902 7.22544642857143  C 23.0096755833808 6.68377976190476  22.8201479795105 6.16387648809524  22.6050085372795 5.66573660714286  C 22.3898690950484 5.16759672619047  22.1568013659647 4.71781994047619  21.9058053500285 4.31640625  C 21.6548093340922 3.91499255952381  21.4243027888446 3.56677827380952  21.2142857142857 3.27176339285714  C 21.0042686397268 2.97674851190476  20.827546955037 2.74702380952381  20.6841206602163 2.58258928571428  L 20.4843483210017 2.3359375  C 20.340922026181 2.21019345238095  20.3050654524758 2.14732142857143  20.3767785998862 2.14732142857143  L 20.5304496300512 2.19084821428572  C 20.9402390438247 2.47135416666666  21.2603870233352 2.6938244047619  21.4908935685828 2.85825892857143  C 21.7214001138304 3.02269345238095  22.0389869095048 3.26450892857143  22.4436539556061 3.58370535714286  C 22.8483210017075 3.90290178571428  23.1761525327262 4.18340773809524  23.4271485486625 4.42522321428572  C 23.6781445645988 4.66703869047619  23.9778030734206 4.98139880952381  24.3261240751281 5.36830357142857  C 24.6744450768355 5.75520833333333  24.9587364826409 6.12760416666666  25.1789982925441 6.48549107142857  C 25.3992601024474 6.84337797619047  25.632327831531 7.26897321428572  25.8782014797951 7.76227678571428  C 26.1240751280592 8.25558035714286  26.3187250996016 8.75372023809524  26.4621513944223 9.25669642857143  C 26.605577689243 9.75967261904762  26.725953329539 10.3255208333333  26.8232783153102 10.9542410714286  C 26.9206033010814 11.5829613095238  26.9743881616392 12.2406994047619  26.9846328969835 12.9274553571429  C 27.0153671030165 15.4326636904762  26.4621513944223 17.6815476190476  25.3249857712009 19.6741071428571  C 24.1878201479795 21.6666666666667  22.5896414342629 23.2191220238095  20.5304496300512 24.3314732142857  C 18.4712578258395 25.4438244047619  16.1354581673307 26  13.5230506545248 26  C 11.6277746158224 26  9.82982356289129 25.6421130952381  8.12919749573136 24.9263392857143  C 6.42857142857143 24.2105654761905  4.97638019351167 23.2529761904762  3.77262379055208 22.0535714285714  C 2.56886738759249 20.8541666666667  1.62635173591349 19.4371279761905  0.945076835515083 17.8024553571429  Z " fill-rule="nonzero" fill="#000000" stroke="none" transform="matrix(1 0 0 1 874 1165 )" />
  </g>
</svg>