<?xml version="1.0" encoding="utf-8"?>
<svg version="1.1" xmlns:xlink="http://www.w3.org/1999/xlink" width="48px" height="30px" xmlns="http://www.w3.org/2000/svg">
  <g transform="matrix(1 0 0 1 -405 -1232 )">
    <path d="M 19.6145833333333 9.3359375  C 20.2743055555556 7.27864583333333  21.5069444444445 5.55338541666667  23.3125 4.16015625  C 21.5347222222222 3.05338541666667  19.5833333333333 2.5  17.4583333333333 2.5  C 16.0277777777778 2.5  14.65625 2.763671875  13.34375 3.291015625  C 12.03125 3.818359375  10.9027777777778 4.52473958333333  9.95833333333333 5.41015625  C 9.01388888888889 6.29557291666666  8.26041666666667 7.35026041666666  7.69791666666667 8.57421875  C 7.13541666666667 9.79817708333333  6.85416666666667 11.0807291666667  6.85416666666667 12.421875  C 6.85416666666667 13.7760416666667  7.13541666666667 15.0651041666667  7.69791666666667 16.2890625  C 8.26041666666667 17.5130208333333  9.01388888888889 18.5677083333333  9.95833333333333 19.453125  C 10.9027777777778 20.3385416666667  12.0277777777778 21.044921875  13.3333333333333 21.572265625  C 14.6388888888889 22.099609375  16.0138888888889 22.36328125  17.4583333333333 22.36328125  C 19.5833333333333 22.36328125  21.5347222222222 21.8098958333333  23.3125 20.703125  C 21.4930555555556 19.3098958333333  20.2569444444444 17.5813802083333  19.6041666666667 15.517578125  C 18.9513888888889 13.4537760416667  18.9548611111111 11.3932291666667  19.6145833333333 9.3359375  Z M 27.5833333333333 9.501953125  C 26.9444444444445 7.54231770833333  25.75 5.91796875  24 4.62890625  C 22.25 5.91796875  21.0555555555556 7.54231770833333  20.4166666666667 9.501953125  C 19.7777777777778 11.4615885416667  19.7743055555556 13.41796875  20.40625 15.37109375  C 21.0381944444444 17.32421875  22.2361111111111 18.9453125  24 20.234375  C 25.7638888888889 18.9453125  26.9618055555556 17.32421875  27.59375 15.37109375  C 28.2256944444445 13.41796875  28.2222222222222 11.4615885416667  27.5833333333333 9.501953125  Z M 30.5416666666667 2.5  C 28.4166666666667 2.5  26.4652777777778 3.05338541666667  24.6875 4.16015625  C 26.4930555555556 5.55338541666667  27.7256944444444 7.28190104166667  28.3854166666667 9.345703125  C 29.0451388888889 11.4095052083333  29.0486111111111 13.4733072916667  28.3958333333333 15.537109375  C 27.7430555555556 17.6009114583333  26.5069444444444 19.3229166666667  24.6875 20.703125  C 26.4652777777778 21.8098958333333  28.4166666666667 22.36328125  30.5416666666667 22.36328125  C 31.9861111111111 22.36328125  33.3611111111111 22.099609375  34.6666666666667 21.572265625  C 35.9722222222222 21.044921875  37.0972222222222 20.3385416666667  38.0416666666667 19.453125  C 38.9861111111111 18.5677083333333  39.7395833333333 17.5130208333333  40.3020833333333 16.2890625  C 40.8645833333333 15.0651041666667  41.1458333333333 13.7760416666667  41.1458333333333 12.421875  C 41.1458333333333 11.0807291666667  40.8645833333333 9.79817708333333  40.3020833333333 8.57421875  C 39.7395833333333 7.35026041666666  38.9861111111111 6.29557291666666  38.0416666666667 5.41015625  C 37.0972222222222 4.52473958333333  35.96875 3.818359375  34.65625 3.291015625  C 33.34375 2.763671875  31.9722222222222 2.5  30.5416666666667 2.5  Z M 40.125 18.59375  L 40.125 18.26171875  L 40.2708333333333 18.26171875  L 40.2708333333333 18.203125  L 39.9166666666667 18.203125  L 39.9166666666667 18.26171875  L 40.0625 18.26171875  L 40.0625 18.59375  L 40.125 18.59375  Z M 40.7291666666667 18.30078125  L 40.7291666666667 18.59375  L 40.8125 18.59375  L 40.8125 18.203125  L 40.7083333333333 18.203125  L 40.5833333333333 18.45703125  L 40.4583333333333 18.203125  L 40.3541666666667 18.203125  L 40.3541666666667 18.59375  L 40.4166666666667 18.59375  L 40.4166666666667 18.30078125  L 40.5416666666667 18.5546875  L 40.625 18.5546875  L 40.7291666666667 18.30078125  Z M 40.5625 27.16796875  L 40.5625 27.1875  L 40.5625 27.2265625  L 40.5208333333333 27.2265625  L 40.4583333333333 27.2265625  L 40.4583333333333 27.16796875  L 40.5208333333333 27.16796875  L 40.5625 27.16796875  Z M 40.4791666666667 27.265625  L 40.5625 27.36328125  L 40.625 27.36328125  L 40.5416666666667 27.265625  L 40.5833333333333 27.265625  L 40.6041666666667 27.24609375  C 40.6180555555556 27.2330729166667  40.625 27.2135416666667  40.625 27.1875  C 40.625 27.1614583333333  40.6180555555556 27.1419270833333  40.6041666666667 27.12890625  L 40.5833333333333 27.109375  L 40.5208333333333 27.109375  L 40.3958333333333 27.109375  L 40.3958333333333 27.36328125  L 40.4583333333333 27.36328125  L 40.4583333333333 27.265625  L 40.4791666666667 27.265625  Z M 14.5 26.640625  C 14.3472222222222 26.484375  14.2708333333333 26.2825520833333  14.2708333333333 26.03515625  C 14.2708333333333 25.7877604166667  14.3472222222222 25.5859375  14.5 25.4296875  C 14.6527777777778 25.2734375  14.8611111111111 25.1953125  15.125 25.1953125  C 15.375 25.1953125  15.5763888888889 25.2766927083333  15.7291666666667 25.439453125  C 15.8819444444444 25.6022135416667  15.9583333333333 25.80078125  15.9583333333333 26.03515625  C 15.9583333333333 26.2825520833333  15.8819444444444 26.484375  15.7291666666667 26.640625  C 15.5763888888889 26.796875  15.375 26.875  15.125 26.875  C 14.8611111111111 26.875  14.6527777777778 26.796875  14.5 26.640625  Z M 23.3958333333333 25.80078125  C 23.4652777777778 25.3841145833333  23.7083333333333 25.17578125  24.125 25.17578125  C 24.5416666666667 25.17578125  24.7847222222222 25.3841145833333  24.8541666666667 25.80078125  L 23.3958333333333 25.80078125  Z M 31.7708333333333 26.640625  C 31.6180555555556 26.484375  31.5416666666667 26.2825520833333  31.5416666666667 26.03515625  C 31.5416666666667 25.7877604166667  31.6180555555556 25.5859375  31.7708333333333 25.4296875  C 31.9236111111111 25.2734375  32.125 25.1953125  32.375 25.1953125  C 32.625 25.1953125  32.8298611111111 25.2766927083333  32.9895833333333 25.439453125  C 33.1493055555556 25.6022135416667  33.2291666666667 25.80078125  33.2291666666667 26.03515625  C 33.2291666666667 26.2825520833333  33.1527777777778 26.484375  33 26.640625  C 32.8472222222222 26.796875  32.6388888888889 26.875  32.375 26.875  C 32.125 26.875  31.9236111111111 26.796875  31.7708333333333 26.640625  Z M 37.4479166666667 26.630859375  C 37.2881944444444 26.4680989583333  37.2083333333333 26.26953125  37.2083333333333 26.03515625  C 37.2083333333333 25.80078125  37.2881944444444 25.6022135416667  37.4479166666667 25.439453125  C 37.6076388888889 25.2766927083333  37.8125 25.1953125  38.0625 25.1953125  C 38.3125 25.1953125  38.5173611111111 25.2766927083333  38.6770833333333 25.439453125  C 38.8368055555556 25.6022135416667  38.9166666666667 25.80078125  38.9166666666667 26.03515625  C 38.9166666666667 26.2825520833333  38.8368055555556 26.484375  38.6770833333333 26.640625  C 38.5173611111111 26.796875  38.3125 26.875  38.0625 26.875  C 37.8125 26.875  37.6076388888889 26.7936197916667  37.4479166666667 26.630859375  Z M 40.5833333333333 27.421875  C 40.5694444444444 27.4348958333333  40.5416666666667 27.44140625  40.5 27.44140625  C 40.4722222222222 27.44140625  40.4444444444445 27.4348958333333  40.4166666666667 27.421875  C 40.4027777777778 27.421875  40.3819444444444 27.4088541666667  40.3541666666667 27.3828125  C 40.3263888888889 27.3567708333333  40.3125 27.3372395833333  40.3125 27.32421875  C 40.2986111111111 27.2981770833333  40.2916666666667 27.2721354166667  40.2916666666667 27.24609375  C 40.2916666666667 27.20703125  40.2986111111111 27.1809895833333  40.3125 27.16796875  C 40.3125 27.1419270833333  40.3263888888889 27.1158854166667  40.3541666666667 27.08984375  L 40.375 27.0703125  C 40.4027777777778 27.0703125  40.4166666666667 27.0638020833333  40.4166666666667 27.05078125  C 40.4444444444445 27.0377604166667  40.4722222222222 27.03125  40.5 27.03125  C 40.5416666666667 27.03125  40.5694444444444 27.0377604166667  40.5833333333333 27.05078125  L 40.6666666666667 27.08984375  L 40.7083333333333 27.16796875  L 40.7083333333333 27.1875  C 40.7222222222222 27.2135416666667  40.7291666666667 27.2330729166667  40.7291666666667 27.24609375  L 40.7083333333333 27.265625  L 40.7083333333333 27.32421875  C 40.7083333333333 27.32421875  40.7013888888889 27.3307291666667  40.6875 27.34375  L 40.6666666666667 27.3828125  C 40.6388888888889 27.4088541666667  40.6111111111111 27.421875  40.5833333333333 27.421875  Z M 12.4791666666667 25.8984375  L 12.4791666666667 27.36328125  L 13.1041666666667 27.36328125  L 13.1041666666667 25.703125  C 13.1041666666667 25.390625  13.0034722222222 25.1399739583333  12.8020833333333 24.951171875  C 12.6006944444444 24.7623697916667  12.3263888888889 24.6614583333333  11.9791666666667 24.6484375  C 11.5347222222222 24.6484375  11.2083333333333 24.8046875  11 25.1171875  C 10.8055555555556 24.8046875  10.4930555555556 24.6484375  10.0625 24.6484375  C 9.72916666666667 24.6484375  9.45833333333333 24.7786458333333  9.25 25.0390625  L 9.25 24.7265625  L 8.625 24.7265625  L 8.625 27.36328125  L 9.25 27.36328125  L 9.25 25.8984375  C 9.25 25.4296875  9.47916666666667 25.1953125  9.9375 25.1953125  C 10.3541666666667 25.1953125  10.5625 25.4296875  10.5625 25.8984375  L 10.5625 27.36328125  L 11.1666666666667 27.36328125  L 11.1666666666667 25.8984375  C 11.1666666666667 25.4296875  11.3958333333333 25.1953125  11.8541666666667 25.1953125  C 12.2708333333333 25.1953125  12.4791666666667 25.4296875  12.4791666666667 25.8984375  Z M 15.9375 27.03125  L 15.9375 27.36328125  L 16.5416666666667 27.36328125  L 16.5416666666667 26.03515625  L 16.5416666666667 24.7265625  L 15.9375 24.7265625  L 15.9375 25.0390625  C 15.7013888888889 24.7786458333333  15.4027777777778 24.6484375  15.0416666666667 24.6484375  C 14.6388888888889 24.6484375  14.3055555555556 24.7786458333333  14.0416666666667 25.0390625  C 13.7777777777778 25.2994791666667  13.6458333333333 25.6315104166667  13.6458333333333 26.03515625  C 13.6458333333333 26.4388020833333  13.7777777777778 26.7708333333333  14.0416666666667 27.03125  C 14.3055555555556 27.2916666666667  14.6388888888889 27.421875  15.0416666666667 27.421875  C 15.4305555555556 27.421875  15.7291666666667 27.2916666666667  15.9375 27.03125  Z M 19.3020833333333 27.1875  C 19.53125 27.03125  19.6458333333333 26.8229166666667  19.6458333333333 26.5625  C 19.6458333333333 26.1197916666667  19.3194444444444 25.859375  18.6666666666667 25.78125  L 18.375 25.7421875  C 18.0555555555556 25.6901041666667  17.8958333333333 25.5989583333333  17.8958333333333 25.46875  C 17.8958333333333 25.2734375  18.0694444444444 25.17578125  18.4166666666667 25.17578125  C 18.7361111111111 25.17578125  19.0347222222222 25.2473958333333  19.3125 25.390625  L 19.5625 24.921875  C 19.2569444444444 24.7395833333333  18.875 24.6484375  18.4166666666667 24.6484375  C 18.0555555555556 24.6484375  17.7708333333333 24.7265625  17.5625 24.8828125  C 17.3541666666667 25.0390625  17.25 25.2473958333333  17.25 25.5078125  C 17.25 25.9375  17.5763888888889 26.19140625  18.2291666666667 26.26953125  L 18.5 26.30859375  C 18.8333333333333 26.3606770833333  19 26.4518229166667  19 26.58203125  C 19 26.8033854166667  18.7847222222222 26.9140625  18.3541666666667 26.9140625  C 18.0069444444444 26.9140625  17.6944444444444 26.8229166666667  17.4166666666667 26.640625  L 17.1458333333333 27.08984375  C 17.4930555555556 27.3111979166667  17.8958333333333 27.421875  18.3541666666667 27.421875  C 18.7569444444444 27.421875  19.0729166666667 27.34375  19.3020833333333 27.1875  Z M 21.6041666666667 27.421875  C 21.8958333333333 27.421875  22.1458333333333 27.3567708333333  22.3541666666667 27.2265625  L 22.1875 26.73828125  C 22.0069444444444 26.8294270833333  21.8263888888889 26.875  21.6458333333333 26.875  C 21.3819444444444 26.875  21.25 26.7317708333333  21.25 26.4453125  L 21.25 25.25390625  L 22.25 25.25390625  L 22.25 24.7265625  L 21.25 24.7265625  L 21.25 23.92578125  L 20.625 23.92578125  L 20.625 24.7265625  L 20.0416666666667 24.7265625  L 20.0416666666667 25.25390625  L 20.625 25.25390625  L 20.625 26.4453125  C 20.625 27.0963541666667  20.9513888888889 27.421875  21.6041666666667 27.421875  Z M 25.1041666666667 25.029296875  C 24.8541666666667 24.775390625  24.5347222222222 24.6484375  24.1458333333333 24.6484375  C 23.7430555555556 24.6484375  23.4097222222222 24.7786458333333  23.1458333333333 25.0390625  C 22.8819444444444 25.2994791666667  22.75 25.6315104166667  22.75 26.03515625  C 22.75 26.4518229166667  22.8854166666667 26.787109375  23.15625 27.041015625  C 23.4270833333333 27.294921875  23.7708333333333 27.421875  24.1875 27.421875  C 24.6458333333333 27.421875  25.0277777777778 27.2981770833333  25.3333333333333 27.05078125  L 25.0416666666667 26.62109375  C 24.7916666666667 26.81640625  24.5208333333333 26.9140625  24.2291666666667 26.9140625  C 23.7569444444445 26.9140625  23.4722222222222 26.69921875  23.375 26.26953125  L 25.4791666666667 26.26953125  L 25.4791666666667 26.03515625  C 25.4791666666667 25.6184895833333  25.3541666666667 25.283203125  25.1041666666667 25.029296875  Z M 27.8958333333333 24.7265625  C 27.7708333333333 24.6744791666667  27.625 24.6484375  27.4583333333333 24.6484375  C 27.1388888888889 24.6484375  26.8958333333333 24.7786458333333  26.7291666666667 25.0390625  L 26.7291666666667 24.7265625  L 26.1041666666667 24.7265625  L 26.1041666666667 27.36328125  L 26.7291666666667 27.36328125  L 26.7291666666667 25.87890625  C 26.7291666666667 25.4231770833333  26.9305555555556 25.1953125  27.3333333333333 25.1953125  C 27.4722222222222 25.1953125  27.5972222222222 25.2213541666667  27.7083333333333 25.2734375  L 27.8958333333333 24.7265625  Z M 28.4895833333333 25.0390625  C 28.21875 25.2994791666667  28.0833333333333 25.6315104166667  28.0833333333333 26.03515625  C 28.0833333333333 26.4388020833333  28.21875 26.7708333333333  28.4895833333333 27.03125  C 28.7604166666667 27.2916666666667  29.125 27.421875  29.5833333333333 27.421875  C 29.9861111111111 27.421875  30.3194444444445 27.3177083333333  30.5833333333333 27.109375  L 30.2916666666667 26.640625  C 30.0416666666667 26.8098958333333  29.7986111111111 26.8880208333333  29.5625 26.875  C 29.3125 26.875  29.1076388888889 26.796875  28.9479166666667 26.640625  C 28.7881944444445 26.484375  28.7083333333333 26.2825520833333  28.7083333333333 26.03515625  C 28.7083333333333 25.7877604166667  28.7881944444445 25.5859375  28.9479166666667 25.4296875  C 29.1076388888889 25.2734375  29.3125 25.1953125  29.5625 25.1953125  C 29.8263888888889 25.1953125  30.0694444444444 25.2734375  30.2916666666667 25.4296875  L 30.5833333333333 24.9609375  C 30.3055555555556 24.7526041666667  29.9722222222222 24.6484375  29.5833333333333 24.6484375  C 29.125 24.6484375  28.7604166666667 24.7786458333333  28.4895833333333 25.0390625  Z M 33.1875 27.03125  L 33.1875 27.36328125  L 33.8125 27.36328125  L 33.8125 26.03515625  L 33.8125 24.7265625  L 33.1875 24.7265625  L 33.1875 25.0390625  C 32.9791666666667 24.7786458333333  32.6875 24.6484375  32.3125 24.6484375  C 31.9097222222222 24.6484375  31.5729166666667 24.7786458333333  31.3020833333333 25.0390625  C 31.03125 25.2994791666667  30.8958333333333 25.6315104166667  30.8958333333333 26.03515625  C 30.8958333333333 26.4388020833333  31.03125 26.7708333333333  31.3020833333333 27.03125  C 31.5729166666667 27.2916666666667  31.9097222222222 27.421875  32.3125 27.421875  C 32.7013888888889 27.421875  32.9930555555556 27.2916666666667  33.1875 27.03125  Z M 36.3958333333333 24.7265625  C 36.2847222222222 24.6744791666667  36.1388888888889 24.6484375  35.9583333333333 24.6484375  C 35.6388888888889 24.6484375  35.3958333333333 24.7786458333333  35.2291666666667 25.0390625  L 35.2291666666667 24.7265625  L 34.625 24.7265625  L 34.625 27.36328125  L 35.2291666666667 27.36328125  L 35.2291666666667 25.87890625  C 35.2291666666667 25.4231770833333  35.4305555555556 25.1953125  35.8333333333333 25.1953125  C 35.9722222222222 25.1953125  36.0972222222222 25.2213541666667  36.2083333333333 25.2734375  L 36.3958333333333 24.7265625  Z M 38.875 27.03125  L 38.875 27.36328125  L 39.4791666666667 27.36328125  L 39.4791666666667 26.03515625  L 39.4791666666667 23.65234375  L 38.875 23.65234375  L 38.875 25.0390625  C 38.6666666666667 24.7786458333333  38.3680555555556 24.6484375  37.9791666666667 24.6484375  C 37.5902777777778 24.6484375  37.2604166666667 24.7819010416667  36.9895833333333 25.048828125  C 36.71875 25.3157552083333  36.5833333333333 25.64453125  36.5833333333333 26.03515625  C 36.5833333333333 26.42578125  36.71875 26.7545572916667  36.9895833333333 27.021484375  C 37.2604166666667 27.2884114583333  37.5902777777778 27.421875  37.9791666666667 27.421875  C 38.3819444444445 27.421875  38.6805555555556 27.2916666666667  38.875 27.03125  Z M 40.5625 26.982421875  C 40.5347222222222 26.9759114583333  40.5138888888889 26.97265625  40.5 26.97265625  L 40.4583333333333 26.9921875  L 40.3958333333333 26.9921875  C 40.3680555555556 27.0052083333333  40.3402777777778 27.0247395833333  40.3125 27.05078125  C 40.2708333333333 27.0638020833333  40.25 27.08984375  40.25 27.12890625  C 40.2361111111111 27.1549479166667  40.2291666666667 27.1940104166667  40.2291666666667 27.24609375  C 40.2291666666667 27.28515625  40.2361111111111 27.3177083333333  40.25 27.34375  C 40.25 27.3697916666667  40.2708333333333 27.3958333333333  40.3125 27.421875  C 40.3402777777778 27.4479166666667  40.3680555555556 27.4674479166667  40.3958333333333 27.48046875  C 40.4236111111111 27.4934895833333  40.4583333333333 27.5  40.5 27.5  C 40.5555555555556 27.5  40.5972222222222 27.4934895833333  40.625 27.48046875  C 40.625 27.4674479166667  40.6388888888889 27.4544270833333  40.6666666666667 27.44140625  L 40.7083333333333 27.421875  C 40.7222222222222 27.4088541666667  40.7430555555556 27.3828125  40.7708333333333 27.34375  C 40.7847222222222 27.3177083333333  40.7916666666667 27.28515625  40.7916666666667 27.24609375  C 40.7916666666667 27.1940104166667  40.7847222222222 27.1549479166667  40.7708333333333 27.12890625  C 40.7569444444444 27.1158854166667  40.7361111111111 27.08984375  40.7083333333333 27.05078125  C 40.7083333333333 27.0377604166667  40.6944444444445 27.0247395833333  40.6666666666667 27.01171875  L 40.625 26.9921875  C 40.6111111111111 26.9921875  40.5902777777778 26.9889322916667  40.5625 26.982421875  Z M 47.2083333333333 0.742187500000001  C 47.7361111111111 1.23697916666667  48 1.82291666666667  48 2.5  L 48 27.5  C 48 28.1770833333333  47.7361111111111 28.7630208333333  47.2083333333333 29.2578125  C 46.6805555555556 29.7526041666667  46.0555555555556 30  45.3333333333333 30  L 2.66666666666667 30  C 1.94444444444444 30  1.31944444444444 29.7526041666667  0.791666666666667 29.2578125  C 0.263888888888889 28.7630208333333  0 28.1770833333333  0 27.5  L 0 2.5  C 0 1.82291666666667  0.263888888888889 1.23697916666667  0.791666666666667 0.742187500000001  C 1.31944444444444 0.24739583333333  1.94444444444444 0  2.66666666666667 0  L 45.3333333333333 0  C 46.0555555555556 0  46.6805555555556 0.24739583333333  47.2083333333333 0.742187500000001  Z " fill-rule="nonzero" fill="#000000" stroke="none" transform="matrix(1 0 0 1 405 1232 )" />
  </g>
</svg>