<?xml version="1.0" encoding="utf-8"?>
<svg version="1.1" xmlns:xlink="http://www.w3.org/1999/xlink" width="48px" height="30px" xmlns="http://www.w3.org/2000/svg">
  <g transform="matrix(1 0 0 1 -461 -1232 )">
    <path d="M 15.1354166666667 14.306640625  C 15.3923611111111 14.521484375  15.5208333333333 14.8177083333333  15.5208333333333 15.1953125  C 15.5208333333333 15.6770833333333  15.34375 16.0774739583333  14.9895833333333 16.396484375  C 14.6354166666667 16.7154947916667  14.2013888888889 16.875  13.6875 16.875  C 13.2847222222222 16.875  12.9618055555556 16.7708333333333  12.71875 16.5625  C 12.4756944444444 16.3541666666667  12.3541666666667 16.0677083333333  12.3541666666667 15.703125  C 12.3541666666667 15.2213541666667  12.5277777777778 14.814453125  12.875 14.482421875  C 13.2222222222222 14.150390625  13.6527777777778 13.984375  14.1666666666667 13.984375  C 14.5555555555556 13.984375  14.8784722222222 14.091796875  15.1354166666667 14.306640625  Z M 31.625 11.689453125  C 31.7916666666667 11.826171875  31.875 12.0247395833333  31.875 12.28515625  C 31.875 12.83203125  31.7222222222222 13.203125  31.4166666666667 13.3984375  C 31.1111111111111 13.59375  30.6527777777778 13.69140625  30.0416666666667 13.69140625  L 29.375 13.7109375  L 29.7291666666667 11.62109375  C 29.7569444444445 11.4778645833333  29.8472222222222 11.40625  30 11.40625  L 30.375 11.40625  C 30.6805555555556 11.40625  30.9236111111111 11.4192708333333  31.1041666666667 11.4453125  C 31.2847222222222 11.4713541666667  31.4583333333333 11.552734375  31.625 11.689453125  Z M 38.8020833333333 14.306640625  C 39.0590277777778 14.521484375  39.1875 14.8177083333333  39.1875 15.1953125  C 39.1875 15.6640625  39.0104166666667 16.0611979166667  38.65625 16.38671875  C 38.3020833333333 16.7122395833333  37.875 16.875  37.375 16.875  C 36.9722222222222 16.875  36.6458333333333 16.7708333333333  36.3958333333333 16.5625  C 36.1458333333333 16.3541666666667  36.0208333333333 16.0677083333333  36.0208333333333 15.703125  C 36.0208333333333 15.2213541666667  36.1944444444445 14.814453125  36.5416666666667 14.482421875  C 36.8888888888889 14.150390625  37.3194444444445 13.984375  37.8333333333333 13.984375  C 38.2222222222222 13.984375  38.5451388888889 14.091796875  38.8020833333333 14.306640625  Z M 9.66666666666667 14.482421875  C 10.3472222222222 13.8509114583333  10.6875 12.9752604166667  10.6875 11.85546875  C 10.6875 11.0872395833333  10.4201388888889 10.5305989583333  9.88541666666667 10.185546875  C 9.35069444444444 9.84049479166666  8.65277777777778 9.66796875  7.79166666666667 9.66796875  L 4.45833333333333 9.66796875  C 4.19444444444444 9.66796875  4.04861111111111 9.79166666666666  4.02083333333333 10.0390625  L 2.66666666666667 18.0078125  C 2.65277777777778 18.0859375  2.67361111111111 18.1575520833333  2.72916666666667 18.22265625  C 2.78472222222222 18.2877604166667  2.85416666666667 18.3203125  2.9375 18.3203125  L 4.52083333333333 18.3203125  C 4.79861111111111 18.3203125  4.95138888888889 18.1966145833333  4.97916666666667 17.94921875  L 5.35416666666667 15.80078125  C 5.36805555555556 15.6966145833333  5.41666666666667 15.6119791666667  5.5 15.546875  C 5.58333333333333 15.4817708333333  5.6875 15.439453125  5.8125 15.419921875  C 5.9375 15.400390625  6.05555555555556 15.390625  6.16666666666667 15.390625  C 6.27777777777778 15.390625  6.40972222222222 15.3971354166667  6.5625 15.41015625  C 6.71527777777778 15.4231770833333  6.8125 15.4296875  6.85416666666667 15.4296875  C 8.04861111111111 15.4296875  8.98611111111111 15.1139322916667  9.66666666666667 14.482421875  Z M 16.6666666666667 18.3203125  C 16.9305555555556 18.3203125  17.0833333333333 18.1966145833333  17.125 17.94921875  L 17.9791666666667 12.8515625  C 17.9930555555556 12.7734375  17.9722222222222 12.7018229166667  17.9166666666667 12.63671875  C 17.8611111111111 12.5716145833333  17.7916666666667 12.5390625  17.7083333333333 12.5390625  L 16.125 12.5390625  C 15.9305555555556 12.5390625  15.8125 12.75390625  15.7708333333333 13.18359375  C 15.3958333333333 12.6627604166667  14.7361111111111 12.40234375  13.7916666666667 12.40234375  C 12.7916666666667 12.40234375  11.9409722222222 12.75390625  11.2395833333333 13.45703125  C 10.5381944444444 14.16015625  10.1875 14.9869791666667  10.1875 15.9375  C 10.1875 16.7057291666667  10.4270833333333 17.3177083333333  10.90625 17.7734375  C 11.3854166666667 18.2291666666667  12.0277777777778 18.45703125  12.8333333333333 18.45703125  C 13.2222222222222 18.45703125  13.625 18.37890625  14.0416666666667 18.22265625  C 14.4583333333333 18.06640625  14.7916666666667 17.8580729166667  15.0416666666667 17.59765625  C 14.9861111111111 17.75390625  14.9583333333333 17.890625  14.9583333333333 18.0078125  C 14.9583333333333 18.2161458333333  15.0486111111111 18.3203125  15.2291666666667 18.3203125  L 16.6666666666667 18.3203125  Z M 26.3958333333333 12.94921875  C 26.4236111111111 12.9231770833333  26.4375 12.8776041666667  26.4375 12.8125  C 26.4375 12.7473958333333  26.4097222222222 12.685546875  26.3541666666667 12.626953125  C 26.2986111111111 12.568359375  26.2361111111111 12.5390625  26.1666666666667 12.5390625  L 24.5625 12.5390625  C 24.4097222222222 12.5390625  24.2847222222222 12.6041666666667  24.1875 12.734375  L 21.9791666666667 15.78125  L 21.0625 12.8515625  C 20.9930555555556 12.6432291666667  20.8402777777778 12.5390625  20.6041666666667 12.5390625  L 19.0416666666667 12.5390625  C 18.9722222222222 12.5390625  18.9097222222222 12.568359375  18.8541666666667 12.626953125  C 18.7986111111111 12.685546875  18.7708333333333 12.7473958333333  18.7708333333333 12.8125  C 18.7708333333333 12.8385416666667  18.90625 13.22265625  19.1770833333333 13.96484375  C 19.4479166666667 14.70703125  19.7395833333333 15.5078125  20.0520833333333 16.3671875  C 20.3645833333333 17.2265625  20.5277777777778 17.6822916666667  20.5416666666667 17.734375  C 19.4027777777778 19.1927083333333  18.8333333333333 19.9739583333333  18.8333333333333 20.078125  C 18.8333333333333 20.2473958333333  18.9236111111111 20.33203125  19.1041666666667 20.33203125  L 20.7083333333333 20.33203125  C 20.8611111111111 20.33203125  20.9861111111111 20.2669270833333  21.0833333333333 20.13671875  L 26.3958333333333 12.94921875  Z M 33.3333333333333 14.482421875  C 34.0138888888889 13.8509114583333  34.3541666666667 12.9752604166667  34.3541666666667 11.85546875  C 34.3541666666667 11.0872395833333  34.0868055555556 10.5305989583333  33.5520833333333 10.185546875  C 33.0173611111111 9.84049479166666  32.3194444444444 9.66796875  31.4583333333333 9.66796875  L 28.1458333333333 9.66796875  C 27.8680555555556 9.66796875  27.7152777777778 9.79166666666666  27.6875 10.0390625  L 26.3333333333333 18.0078125  C 26.3194444444444 18.0859375  26.3402777777778 18.1575520833333  26.3958333333333 18.22265625  C 26.4513888888889 18.2877604166667  26.5208333333333 18.3203125  26.6041666666667 18.3203125  L 28.3125 18.3203125  C 28.4791666666667 18.3203125  28.5902777777778 18.2356770833333  28.6458333333333 18.06640625  L 29.0208333333333 15.80078125  C 29.0347222222222 15.6966145833333  29.0833333333333 15.6119791666667  29.1666666666667 15.546875  C 29.25 15.4817708333333  29.3541666666667 15.439453125  29.4791666666667 15.419921875  C 29.6041666666667 15.400390625  29.7222222222222 15.390625  29.8333333333333 15.390625  C 29.9444444444445 15.390625  30.0763888888889 15.3971354166667  30.2291666666667 15.41015625  C 30.3819444444445 15.4231770833333  30.4791666666667 15.4296875  30.5208333333333 15.4296875  C 31.7152777777778 15.4296875  32.6527777777778 15.1139322916667  33.3333333333333 14.482421875  Z M 40.3333333333333 18.3203125  C 40.5972222222222 18.3203125  40.75 18.1966145833333  40.7916666666667 17.94921875  L 41.6458333333333 12.8515625  C 41.6597222222222 12.7734375  41.6388888888889 12.7018229166667  41.5833333333333 12.63671875  C 41.5277777777778 12.5716145833333  41.4583333333333 12.5390625  41.375 12.5390625  L 39.7916666666667 12.5390625  C 39.5972222222222 12.5390625  39.4791666666667 12.75390625  39.4375 13.18359375  C 39.0763888888889 12.6627604166667  38.4166666666667 12.40234375  37.4583333333333 12.40234375  C 36.4583333333333 12.40234375  35.6076388888889 12.75390625  34.90625 13.45703125  C 34.2048611111111 14.16015625  33.8541666666667 14.9869791666667  33.8541666666667 15.9375  C 33.8541666666667 16.7057291666667  34.09375 17.3177083333333  34.5729166666667 17.7734375  C 35.0520833333333 18.2291666666667  35.6944444444444 18.45703125  36.5 18.45703125  C 36.9027777777778 18.45703125  37.3125 18.37890625  37.7291666666667 18.22265625  C 38.1458333333333 18.06640625  38.4722222222222 17.8580729166667  38.7083333333333 17.59765625  C 38.7083333333333 17.6106770833333  38.6944444444444 17.6692708333333  38.6666666666667 17.7734375  C 38.6388888888889 17.8776041666667  38.625 17.9557291666667  38.625 18.0078125  C 38.625 18.2161458333333  38.7152777777778 18.3203125  38.8958333333333 18.3203125  L 40.3333333333333 18.3203125  Z M 43.9791666666667 17.94921875  L 45.3333333333333 9.9609375  L 45.3333333333333 9.94140625  C 45.3333333333333 9.75911458333333  45.2430555555556 9.66796875  45.0625 9.66796875  L 43.5208333333333 9.66796875  C 43.3680555555556 9.66796875  43.2777777777778 9.73958333333333  43.25 9.8828125  L 41.8958333333333 18.0078125  L 41.875 18.046875  C 41.875 18.1119791666667  41.9027777777778 18.173828125  41.9583333333333 18.232421875  C 42.0138888888889 18.291015625  42.0833333333333 18.3203125  42.1666666666667 18.3203125  L 43.5416666666667 18.3203125  C 43.8055555555556 18.3203125  43.9513888888889 18.1966145833333  43.9791666666667 17.94921875  Z M 7.91666666666667 11.630859375  C 8.16666666666667 11.7805989583333  8.25 12.0963541666667  8.16666666666667 12.578125  C 8.09722222222222 13.0338541666667  7.91666666666667 13.3333333333333  7.625 13.4765625  C 7.33333333333333 13.6197916666667  6.91666666666667 13.69140625  6.375 13.69140625  L 5.6875 13.7109375  L 6.04166666666667 11.62109375  C 6.06944444444444 11.4778645833333  6.15972222222222 11.40625  6.3125 11.40625  L 6.70833333333333 11.40625  C 7.26388888888889 11.40625  7.66666666666667 11.4811197916667  7.91666666666667 11.630859375  Z M 47.2083333333333 0.742187500000001  C 47.7361111111111 1.23697916666667  48 1.82291666666667  48 2.5  L 48 27.5  C 48 28.1770833333333  47.7361111111111 28.7630208333333  47.2083333333333 29.2578125  C 46.6805555555556 29.7526041666667  46.0555555555556 30  45.3333333333333 30  L 2.66666666666667 30  C 1.94444444444444 30  1.31944444444444 29.7526041666667  0.791666666666667 29.2578125  C 0.263888888888889 28.7630208333333  0 28.1770833333333  0 27.5  L 0 2.5  C 0 1.82291666666667  0.263888888888889 1.23697916666667  0.791666666666667 0.742187500000001  C 1.31944444444444 0.24739583333333  1.94444444444444 0  2.66666666666667 0  L 45.3333333333333 0  C 46.0555555555556 0  46.6805555555556 0.24739583333333  47.2083333333333 0.742187500000001  Z " fill-rule="nonzero" fill="#000000" stroke="none" transform="matrix(1 0 0 1 461 1232 )" />
  </g>
</svg>