<?xml version="1.0" encoding="utf-8"?>
<svg version="1.1" xmlns:xlink="http://www.w3.org/1999/xlink" width="48px" height="30px" xmlns="http://www.w3.org/2000/svg">
  <g transform="matrix(1 0 0 1 -520 -1232 )">
    <path d="M 40.3541666666667 13.22265625  L 41.1458333333333 16.8359375  L 38.2708333333333 16.8359375  C 38.4652777777778 16.3541666666667  38.9236111111111 15.1888020833333  39.6458333333333 13.33984375  L 39.7083333333333 13.1640625  C 39.7638888888889 13.0338541666667  39.8333333333333 12.8645833333333  39.9166666666667 12.65625  C 40 12.4479166666667  40.0625 12.2786458333333  40.1041666666667 12.1484375  L 40.3541666666667 13.22265625  Z M 2.66666666666667 9.00390625  C 6.98611111111111 10.0325520833333  9.78472222222222 12.2200520833333  11.0625 15.56640625  L 9.85416666666667 9.8046875  C 9.70138888888889 9.1015625  9.18055555555556 8.75  8.29166666666667 8.75  L 2.70833333333333 8.75  L 2.66666666666667 9.00390625  Z M 18.4583333333333 8.75  L 14.7916666666667 8.75  L 11.4166666666667 17.3046875  L 11.0625 15.56640625  C 10.7013888888889 14.6549479166667  10.1111111111111 13.8118489583333  9.29166666666667 13.037109375  C 8.47222222222222 12.2623697916667  7.5625 11.6861979166667  6.5625 11.30859375  L 9.375 21.26953125  L 13.0208333333333 21.26953125  L 18.4583333333333 8.75  Z M 19.8541666666667 8.75  L 17.6875 21.2890625  L 21.1458333333333 21.2890625  L 23.3125 8.75  L 19.8541666666667 8.75  Z M 33.2083333333333 11.77734375  L 33.6875 9.0625  C 32.7291666666667 8.7109375  31.6944444444445 8.53515625  30.5833333333333 8.53515625  C 28.875 8.53515625  27.4791666666667 8.91927083333333  26.3958333333333 9.6875  C 25.3125 10.4557291666667  24.7638888888889 11.4518229166667  24.75 12.67578125  C 24.7361111111111 14.00390625  25.7430555555556 15.13671875  27.7708333333333 16.07421875  C 28.4375 16.3736979166667  28.9027777777778 16.640625  29.1666666666667 16.875  C 29.4305555555556 17.109375  29.5625 17.36328125  29.5625 17.63671875  C 29.5625 18.02734375  29.3541666666667 18.3268229166667  28.9375 18.53515625  C 28.5208333333333 18.7434895833333  28.0416666666667 18.84765625  27.5 18.84765625  C 26.3055555555556 18.84765625  25.2222222222222 18.6328125  24.25 18.203125  L 23.7916666666667 17.98828125  L 23.3125 20.80078125  C 24.3402777777778 21.2434895833333  25.625 21.46484375  27.1666666666667 21.46484375  C 28.9722222222222 21.4778645833333  30.4201388888889 21.09375  31.5104166666667 20.3125  C 32.6006944444444 19.53125  33.1597222222222 18.4895833333333  33.1875 17.1875  C 33.1875 15.8072916666667  32.2152777777778 14.6744791666667  30.2708333333333 13.7890625  C 29.5902777777778 13.4635416666667  29.0972222222222 13.1901041666667  28.7916666666667 12.96875  C 28.4861111111111 12.7473958333333  28.3333333333333 12.5  28.3333333333333 12.2265625  C 28.3333333333333 11.9401041666667  28.5034722222222 11.689453125  28.84375 11.474609375  C 29.1840277777778 11.259765625  29.6736111111111 11.15234375  30.3125 11.15234375  C 31.2847222222222 11.1393229166667  32.1458333333333 11.2955729166667  32.8958333333333 11.62109375  L 33.2083333333333 11.77734375  Z M 45.3333333333333 21.2890625  L 42.5416666666667 8.75  L 39.875 8.75  C 38.9722222222222 8.75  38.3680555555556 9.1015625  38.0625 9.8046875  L 32.9375 21.2890625  L 36.5625 21.2890625  L 37.2916666666667 19.4140625  L 41.7083333333333 19.4140625  C 41.7777777777778 19.7005208333333  41.9166666666667 20.3255208333333  42.125 21.2890625  L 45.3333333333333 21.2890625  Z M 47.2083333333333 0.742187500000001  C 47.7361111111111 1.23697916666667  48 1.82291666666667  48 2.5  L 48 27.5  C 48 28.1770833333333  47.7361111111111 28.7630208333333  47.2083333333333 29.2578125  C 46.6805555555556 29.7526041666667  46.0555555555556 30  45.3333333333333 30  L 2.66666666666667 30  C 1.94444444444444 30  1.31944444444444 29.7526041666667  0.791666666666667 29.2578125  C 0.263888888888889 28.7630208333333  0 28.1770833333333  0 27.5  L 0 2.5  C 0 1.82291666666667  0.263888888888889 1.23697916666667  0.791666666666667 0.742187500000001  C 1.31944444444444 0.24739583333333  1.94444444444444 0  2.66666666666667 0  L 45.3333333333333 0  C 46.0555555555556 0  46.6805555555556 0.24739583333333  47.2083333333333 0.742187500000001  Z " fill-rule="nonzero" fill="#000000" stroke="none" transform="matrix(1 0 0 1 520 1232 )" />
  </g>
</svg>