<?xml version="1.0" encoding="utf-8"?>
<svg version="1.1" xmlns:xlink="http://www.w3.org/1999/xlink" width="34px" height="33px" xmlns="http://www.w3.org/2000/svg">
  <g transform="matrix(1 0 0 1 -571 -1229 )">
    <path d="M 0.638588503130336 12.375  L 7.85657370517928 12.375  C 8.28229937393284 12.375  8.61771959779928 12.5345982142857  8.8628343767786 12.8537946428571  C 12.2944412824891 17.3225446428571  14.6294820717131 22.0736607142857  15.8679567444508 27.1071428571429  L 7.23733636881047 27.1071428571429  C 5.59893758300133 21.6930803571429  3.23164484917473 17.0954241071429  0.135458167330677 13.3141741071429  C -0.0193511667615253 13.1177455357143  -0.0387023335230507 12.912109375  0.0774046670461013 12.697265625  C 0.193511667615253 12.482421875  0.380572946309998 12.375  0.638588503130336 12.375  Z M 12.1525327262379 6.97935267857143  C 14.8745968506925 11.1534598214286  17.0483779169038 15.1434151785714  18.6738759248719 18.94921875  C 18.0417378106621 21.3922991071429  17.2354391955986 23.8046875  16.2549800796813 26.1863839285714  C 15.2358186302409 22.3805803571429  13.5845190665908 18.734375  11.3010813887308 15.2477678571429  C 11.8171125023715 12.5345982142857  12.1009296148738 9.77845982142857  12.1525327262379 6.97935267857143  Z M 12.1718838929994 5.89285714285714  L 20.5896414342629 5.89285714285714  C 23.6213242269019 9.87053571428572  26.1014987668374 14.158203125  28.0301650540694 18.755859375  C 29.9588313413015 23.353515625  31.1489280971353 28.1015625  31.6004553215709 33  L 22.8730791121229 33  C 22.3441472206412 24.8359375  18.7770821476001 15.8002232142857  12.1718838929994 5.89285714285714  Z M 31.7746158224246 0.847098214285716  C 33.2582052741415 5.86830357142857  34 11.0859375  34 16.5  C 34 21.7053571428571  33.3485107190287 26.6897321428571  32.0455321570859 31.453125  C 31.1811800417378 24.578125  28.8654904192753 17.9302455357143  25.0984632896983 11.5094866071429  C 24.7759438436729 7.81417410714286  24.092202618099 4.22935267857143  23.0472396129767 0.755022321428572  C 22.9956365016126 0.558593749999998  23.0311136406754 0.383649553571426  23.1536710301651 0.230189732142856  C 23.2762284196547 0.0767299107142866  23.4407133371277 0  23.6471257825839 0  L 30.5941946499715 0  C 30.8651109846329 0  31.1134509580725 0.079799107142861  31.3392145702903 0.239397321428572  C 31.5649781825081 0.398995535714283  31.7101119332195 0.601562499999999  31.7746158224246 0.847098214285716  Z " fill-rule="nonzero" fill="#000000" stroke="none" transform="matrix(1 0 0 1 571 1229 )" />
  </g>
</svg>