<?xml version="1.0" encoding="utf-8"?>
<svg version="1.1" xmlns:xlink="http://www.w3.org/1999/xlink" width="12px" height="12px" viewBox="147 522.5  12 12" xmlns="http://www.w3.org/2000/svg">
  <path d="M 153 522.5  C 156.36 522.5  159 525.14  159 528.5  C 159 531.86  156.36 534.5  153 534.5  C 149.64 534.5  147 531.86  147 528.5  C 147 525.14  149.64 522.5  153 522.5  Z " fill-rule="nonzero" fill="#f0f0f0" stroke="none" />
  <path d="M 153 523  C 156.08 523  158.5 525.42  158.5 528.5  C 158.5 531.58  156.08 534  153 534  C 149.92 534  147.5 531.58  147.5 528.5  C 147.5 525.42  149.92 523  153 523  Z " stroke-width="1" stroke="#797979" fill="none" />
  <path d="M 153 531.5  C 151.32 531.5  150 530.18  150 528.5  C 150 526.82  151.32 525.5  153 525.5  C 154.68 525.5  156 526.82  156 528.5  C 156 530.18  154.68 531.5  153 531.5  " fill-rule="nonzero" fill="#797979" stroke="none" />
</svg>