<?xml version="1.0" encoding="utf-8"?>
<svg version="1.1" xmlns:xlink="http://www.w3.org/1999/xlink" width="12px" height="12px" viewBox="399 522.5  12 12" xmlns="http://www.w3.org/2000/svg">
  <path d="M 405 522.5  C 408.36 522.5  411 525.14  411 528.5  C 411 531.86  408.36 534.5  405 534.5  C 401.64 534.5  399 531.86  399 528.5  C 399 525.14  401.64 522.5  405 522.5  Z " fill-rule="nonzero" fill="#f0f0f0" stroke="none" />
  <path d="M 405 523  C 408.08 523  410.5 525.42  410.5 528.5  C 410.5 531.58  408.08 534  405 534  C 401.92 534  399.5 531.58  399.5 528.5  C 399.5 525.42  401.92 523  405 523  Z " stroke-width="1" stroke="#797979" fill="none" />
  <path d="M 405 531.5  C 403.32 531.5  402 530.18  402 528.5  C 402 526.82  403.32 525.5  405 525.5  C 406.68 525.5  408 526.82  408 528.5  C 408 530.18  406.68 531.5  405 531.5  " fill-rule="nonzero" fill="#797979" stroke="none" />
</svg>