<?xml version="1.0" encoding="utf-8"?>
<svg version="1.1" xmlns:xlink="http://www.w3.org/1999/xlink" width="12px" height="12px" viewBox="399 546.5  12 12" xmlns="http://www.w3.org/2000/svg">
  <path d="M 405 546.5  C 408.36 546.5  411 549.14  411 552.5  C 411 555.86  408.36 558.5  405 558.5  C 401.64 558.5  399 555.86  399 552.5  C 399 549.14  401.64 546.5  405 546.5  Z " fill-rule="nonzero" fill="#ffffff" stroke="none" />
  <path d="M 405 547  C 408.08 547  410.5 549.42  410.5 552.5  C 410.5 555.58  408.08 558  405 558  C 401.92 558  399.5 555.58  399.5 552.5  C 399.5 549.42  401.92 547  405 547  Z " stroke-width="1" stroke="#797979" fill="none" />
  <path d="M 405 555.5  C 403.32 555.5  402 554.18  402 552.5  C 402 550.82  403.32 549.5  405 549.5  C 406.68 549.5  408 550.82  408 552.5  C 408 554.18  406.68 555.5  405 555.5  " fill-rule="nonzero" fill="#797979" stroke="none" />
</svg>