<?xml version="1.0" encoding="utf-8"?>
<svg version="1.1" xmlns:xlink="http://www.w3.org/1999/xlink" width="12px" height="12px" viewBox="399 570.5  12 12" xmlns="http://www.w3.org/2000/svg">
  <path d="M 405 570.5  C 408.36 570.5  411 573.14  411 576.5  C 411 579.86  408.36 582.5  405 582.5  C 401.64 582.5  399 579.86  399 576.5  C 399 573.14  401.64 570.5  405 570.5  Z " fill-rule="nonzero" fill="#f0f0f0" stroke="none" />
  <path d="M 405 571  C 408.08 571  410.5 573.42  410.5 576.5  C 410.5 579.58  408.08 582  405 582  C 401.92 582  399.5 579.58  399.5 576.5  C 399.5 573.42  401.92 571  405 571  Z " stroke-width="1" stroke="#797979" fill="none" />
  <path d="M 405 579.5  C 403.32 579.5  402 578.18  402 576.5  C 402 574.82  403.32 573.5  405 573.5  C 406.68 573.5  408 574.82  408 576.5  C 408 578.18  406.68 579.5  405 579.5  " fill-rule="nonzero" fill="#797979" stroke="none" />
</svg>