<?xml version="1.0" encoding="utf-8"?>
<svg version="1.1" xmlns:xlink="http://www.w3.org/1999/xlink" width="12px" height="12px" viewBox="646 522.5  12 12" xmlns="http://www.w3.org/2000/svg">
  <path d="M 652 522.5  C 655.36 522.5  658 525.14  658 528.5  C 658 531.86  655.36 534.5  652 534.5  C 648.64 534.5  646 531.86  646 528.5  C 646 525.14  648.64 522.5  652 522.5  Z " fill-rule="nonzero" fill="#f0f0f0" stroke="none" />
  <path d="M 652 523  C 655.08 523  657.5 525.42  657.5 528.5  C 657.5 531.58  655.08 534  652 534  C 648.92 534  646.5 531.58  646.5 528.5  C 646.5 525.42  648.92 523  652 523  Z " stroke-width="1" stroke="#797979" fill="none" />
  <path d="M 652 531.5  C 650.32 531.5  649 530.18  649 528.5  C 649 526.82  650.32 525.5  652 525.5  C 653.68 525.5  655 526.82  655 528.5  C 655 530.18  653.68 531.5  652 531.5  " fill-rule="nonzero" fill="#797979" stroke="none" />
</svg>