<?xml version="1.0" encoding="utf-8"?>
<svg version="1.1" xmlns:xlink="http://www.w3.org/1999/xlink" width="12px" height="12px" viewBox="646 546.5  12 12" xmlns="http://www.w3.org/2000/svg">
  <path d="M 652 546.5  C 655.36 546.5  658 549.14  658 552.5  C 658 555.86  655.36 558.5  652 558.5  C 648.64 558.5  646 555.86  646 552.5  C 646 549.14  648.64 546.5  652 546.5  Z " fill-rule="nonzero" fill="#f0f0f0" stroke="none" />
  <path d="M 652 547  C 655.08 547  657.5 549.42  657.5 552.5  C 657.5 555.58  655.08 558  652 558  C 648.92 558  646.5 555.58  646.5 552.5  C 646.5 549.42  648.92 547  652 547  Z " stroke-width="1" stroke="#797979" fill="none" />
  <path d="M 652 555.5  C 650.32 555.5  649 554.18  649 552.5  C 649 550.82  650.32 549.5  652 549.5  C 653.68 549.5  655 550.82  655 552.5  C 655 554.18  653.68 555.5  652 555.5  " fill-rule="nonzero" fill="#797979" stroke="none" />
</svg>