<?xml version="1.0" encoding="utf-8"?>
<svg version="1.1" xmlns:xlink="http://www.w3.org/1999/xlink" width="50px" height="44px" xmlns="http://www.w3.org/2000/svg">
  <g transform="matrix(1 0 0 1 -403 -166 )">
    <path d="M 47.8515625 0.147157190635451  C 48.3723958333333 -0.0654031958379795  48.8606770833333 -0.0163507989594924  49.31640625 0.294314381270903  C 49.7721354166667 0.621330360460795  50 1.0546265328874  50 1.59420289855073  L 50 36.1270903010033  C 50 36.4541062801932  49.9104817708333 36.7484206614641  49.7314453125 37.0100334448161  C 49.5524088541667 37.271646228168  49.31640625 37.4596804162022  49.0234375 37.5741360089186  L 33.3984375 43.8528428093645  C 33.0078125 44.032701597919  32.6171875 44.032701597919  32.2265625 43.8528428093645  L 17.1875 37.819397993311  L 2.1484375 43.8528428093645  C 1.98567708333333 43.934596804162  1.79036458333333 43.9754738015608  1.5625 43.9754738015608  C 1.25325520833333 43.9754738015608  0.960286458333333 43.8855444072835  0.68359375 43.7056856187291  C 0.227864583333333 43.3786696395392  0 42.9453734671126  0 42.4057971014493  L 0 7.87290969899666  C 0 7.54589371980676  0.0895182291666667 7.25157933853585  0.2685546875 6.98996655518395  C 0.447591145833333 6.72835377183203  0.68359375 6.54031958379784  0.9765625 6.42586399108138  L 16.6015625 0.147157190635451  C 16.9921875 -0.0327015979189946  17.3828125 -0.0327015979189946  17.7734375 0.147157190635451  L 32.8125 6.18060200668896  L 47.8515625 0.147157190635451  Z M 32 9.2463768115942  L 18 3.60535117056856  L 18 34.7536231884058  L 32 40.3946488294314  L 32 9.2463768115942  Z M 17 3.60535117056856  L 4 8.92753623188406  L 4 40.0758082497213  L 17 34.7536231884058  L 17 3.60535117056856  Z M 33 40.3946488294314  L 46 35.0724637681159  L 46 3.92419175027871  L 33 9.2463768115942  L 33 40.3946488294314  Z " fill-rule="nonzero" fill="#000000" stroke="none" transform="matrix(1 0 0 1 403 166 )" />
  </g>
</svg>