<?xml version="1.0" encoding="utf-8"?>
<svg version="1.1" xmlns:xlink="http://www.w3.org/1999/xlink" width="36px" height="50px" xmlns="http://www.w3.org/2000/svg">
  <g transform="matrix(1 0 0 1 -182 -162 )">
    <path d="M 23.2345945945946 37.96875  C 23.5459459459459 38.28125  23.7016216216216 38.6458333333333  23.7016216216216 39.0625  L 23.7016216216216 48.4375  C 23.7016216216216 48.8541666666667  23.5459459459459 49.21875  23.2345945945946 49.53125  C 22.9232432432432 49.84375  22.56 50  22.1448648648649 50  L 12.8043243243243 50  C 12.3891891891892 50  12.0259459459459 49.84375  11.7145945945946 49.53125  C 11.4032432432432 49.21875  11.2475675675676 48.8541666666667  11.2475675675676 48.4375  L 11.2475675675676 39.0625  C 11.2475675675676 38.6458333333333  11.4032432432432 38.28125  11.7145945945946 37.96875  C 12.0259459459459 37.65625  12.3891891891892 37.5  12.8043243243243 37.5  L 22.1448648648649 37.5  C 22.56 37.5  22.9232432432432 37.65625  23.2345945945946 37.96875  Z M 34.4043243243243 9.43359375  C 35.4681081081081 11.3997395833333  36 13.4635416666667  36 15.625  C 36 17.03125  35.7989189189189 18.3463541666667  35.3967567567568 19.5703125  C 34.9945945945946 20.7942708333333  34.5405405405405 21.7903645833333  34.0345945945946 22.55859375  C 33.5286486486486 23.3268229166667  32.8151351351351 24.1015625  31.8940540540541 24.8828125  C 30.972972972973 25.6640625  30.227027027027 26.23046875  29.6562162162162 26.58203125  C 29.0854054054054 26.93359375  28.2940540540541 27.3958333333333  27.2821621621622 27.96875  C 26.2183783783784 28.5677083333333  25.3297297297297 29.4140625  24.6162162162162 30.5078125  C 23.9027027027027 31.6015625  23.5459459459459 32.4739583333333  23.5459459459459 33.125  C 23.5459459459459 33.5677083333333  23.3902702702703 33.9908854166667  23.0789189189189 34.39453125  C 22.7675675675676 34.7981770833333  22.4043243243243 35  21.9891891891892 35  L 12.6486486486486 35  C 12.2594594594595 35  11.9286486486487 34.7591145833333  11.6562162162162 34.27734375  C 11.3837837837838 33.7955729166667  11.2475675675676 33.3072916666667  11.2475675675676 32.8125  L 11.2475675675676 31.0546875  C 11.2475675675676 28.8932291666667  12.0908108108108 26.85546875  13.7772972972973 24.94140625  C 15.4637837837838 23.02734375  17.3189189189189 21.6145833333333  19.3427027027027 20.703125  C 20.8735135135135 20  21.9632432432432 19.2708333333333  22.6118918918919 18.515625  C 23.2605405405405 17.7604166666667  23.5848648648649 16.7708333333333  23.5848648648649 15.546875  C 23.5848648648649 14.453125  22.9816216216216 13.4895833333333  21.7751351351351 12.65625  C 20.5686486486487 11.8229166666667  19.1740540540541 11.40625  17.5913513513514 11.40625  C 15.9048648648649 11.40625  14.5037837837838 11.7838541666667  13.3881081081081 12.5390625  C 12.48 13.1901041666667  11.0918918918919 14.6875  9.22378378378378 17.03125  C 8.88648648648649 17.4479166666667  8.48432432432432 17.65625  8.0172972972973 17.65625  C 7.70594594594595 17.65625  7.38162162162162 17.5520833333333  7.04432432432432 17.34375  L 0.661621621621622 12.4609375  C 0.324324324324325 12.2005208333333  0.123243243243244 11.875  0.0583783783783784 11.484375  C -0.00648648648648612 11.09375  0.064864864864865 10.7291666666667  0.272432432432432 10.390625  C 4.42378378378378 3.46354166666666  10.4432432432432 0  18.3308108108108 0  C 20.4064864864865 0  22.4951351351351 0.403645833333333  24.5967567567568 1.2109375  C 26.6983783783784 2.01822916666666  28.5924324324324 3.09895833333333  30.2789189189189 4.453125  C 31.9654054054054 5.80729166666666  33.3405405405405 7.46744791666666  34.4043243243243 9.43359375  Z " fill-rule="nonzero" fill="#000000" stroke="none" transform="matrix(1 0 0 1 182 162 )" />
  </g>
</svg>