<?xml version="1.0" encoding="utf-8"?>
<svg version="1.1" xmlns:xlink="http://www.w3.org/1999/xlink" width="49px" height="37px" xmlns="http://www.w3.org/2000/svg">
  <g transform="matrix(1 0 0 1 -360 -173 )">
    <path d="M 46.265625 14.2166193181818  C 47.3046875 13.5333806818182  48.2161458333333 12.7713068181818  49 11.9303977272727  L 49 32.7954545454545  C 49 33.9517045454545  48.5716145833333 34.9415246212121  47.71484375 35.7649147727273  C 46.8580729166667 36.5883049242424  45.828125 37  44.625 37  L 4.375 37  C 3.171875 37  2.14192708333333 36.5883049242424  1.28515625 35.7649147727273  C 0.428385416666667 34.9415246212121  0 33.9517045454545  0 32.7954545454545  L 0 11.9303977272727  C 0.802083333333334 12.7888257575758  1.72265625 13.5508996212121  2.76171875 14.2166193181818  C 9.36067708333333 18.5262784090909  13.890625 21.5482954545455  16.3515625 23.2826704545455  C 17.390625 24.0184659090909  18.2337239583333 24.5922111742424  18.880859375 25.00390625  C 19.5279947916667 25.4156013257576  20.3893229166667 25.8360558712121  21.46484375 26.2652698863636  C 22.5403645833333 26.6944839015151  23.54296875 26.9090909090909  24.47265625 26.9090909090909  L 24.5 26.9090909090909  L 24.52734375 26.9090909090909  C 25.45703125 26.9090909090909  26.4596354166667 26.6944839015151  27.53515625 26.2652698863636  C 28.6106770833333 25.8360558712121  29.4720052083333 25.4156013257576  30.119140625 25.00390625  C 30.7662760416667 24.5922111742424  31.609375 24.0184659090909  32.6484375 23.2826704545455  C 35.7473958333333 21.1278409090909  40.2864583333333 18.1058238636364  46.265625 14.2166193181818  Z M 47.701171875 1.23508522727273  C 48.5670572916667 2.05847537878788  49 3.04829545454546  49 4.20454545454546  C 49 5.58854166666666  48.5533854166667 6.91122159090909  47.66015625 8.17258522727272  C 46.7669270833333 9.43394886363637  45.6549479166667 10.5113636363636  44.32421875 11.4048295454545  C 37.4700520833333 15.9772727272727  33.2044270833333 18.8241003787879  31.52734375 19.9453125  C 31.3450520833333 20.0679450757576  30.9576822916667 20.3351089015151  30.365234375 20.7468039772727  C 29.7727864583333 21.1584990530303  29.2805989583333 21.4913589015151  28.888671875 21.7453835227273  C 28.4967447916667 21.9994081439394  28.0227864583333 22.2840909090909  27.466796875 22.5994318181818  C 26.9108072916667 22.9147727272727  26.38671875 23.1512784090909  25.89453125 23.3089488636364  C 25.40234375 23.4666193181818  24.9466145833333 23.5454545454545  24.52734375 23.5454545454545  L 24.5 23.5454545454545  L 24.47265625 23.5454545454545  C 24.0533854166667 23.5454545454545  23.59765625 23.4666193181818  23.10546875 23.3089488636364  C 22.61328125 23.1512784090909  22.0891927083333 22.9147727272727  21.533203125 22.5994318181818  C 20.9772135416667 22.2840909090909  20.5032552083333 21.9994081439394  20.111328125 21.7453835227273  C 19.7194010416667 21.4913589015151  19.2272135416667 21.1584990530303  18.634765625 20.7468039772727  C 18.0423177083333 20.3351089015151  17.6549479166667 20.0679450757576  17.47265625 19.9453125  C 15.8138020833333 18.8241003787879  13.42578125 17.2254971590909  10.30859375 15.1495028409091  C 7.19140625 13.0735085227273  5.32291666666667 11.8252840909091  4.703125 11.4048295454545  C 3.57291666666667 10.6690340909091  2.50651041666667 9.65731534090909  1.50390625 8.36967329545455  C 0.501302083333333 7.08203125  0 5.88636363636363  0 4.78267045454546  C 0 3.41619318181818  0.378255208333333 2.27746212121212  1.134765625 1.36647727272727  C 1.89127604166667 0.455492424242421  2.97135416666667 0  4.375 0  L 44.625 0  C 45.8098958333333 0  46.8352864583333 0.411695075757571  47.701171875 1.23508522727273  Z " fill-rule="nonzero" fill="#000000" stroke="none" transform="matrix(1 0 0 1 360 173 )" />
  </g>
</svg>